<svg width="412" height="263" viewBox="0 0 412 263" fill="none" xmlns="http://www.w3.org/2000/svg">
<path d="M10.9375 115V40.3906H0.878906V29.0625H33.6426V40.3906H23.9746V115H10.9375ZM52.3145 115L41.8164 29.0625H53.5352L59.834 90.293L67.8418 29.0625H78.3887L86.4453 90.293L92.0117 29.0625H103.779L93.916 115H80.8789L73.2617 57.8711L65.3516 115H52.3145ZM117.715 115V29.0625H130.801V115H117.715ZM166.611 115.977C162.445 115.977 158.978 115.016 156.211 113.096C153.444 111.175 151.361 108.376 149.961 104.697C148.594 100.986 147.91 96.5104 147.91 91.2695V53.8184C147.91 49.8796 148.236 46.3314 148.887 43.1738C149.538 40.0163 150.596 37.3145 152.061 35.0684C153.525 32.8223 155.479 31.097 157.92 29.8926C160.361 28.6882 163.372 28.0859 166.953 28.0859C170.208 28.0859 172.975 28.623 175.254 29.6973C177.565 30.7389 179.437 32.2526 180.869 34.2383C182.334 36.224 183.392 38.6328 184.043 41.4648C184.727 44.2643 185.068 47.4219 185.068 50.9375V62.7539H172.422V51.7676C172.422 47.5358 172.064 44.4271 171.348 42.4414C170.632 40.4232 169.199 39.4141 167.051 39.4141C164.674 39.4141 163.079 40.5046 162.266 42.6855C161.484 44.834 161.094 47.8451 161.094 51.7188V91.8555C161.094 94.8503 161.257 97.3079 161.582 99.2285C161.94 101.117 162.526 102.516 163.34 103.428C164.154 104.307 165.293 104.746 166.758 104.746C168.971 104.746 170.469 103.704 171.25 101.621C172.031 99.5378 172.422 96.2337 172.422 91.709V79.4043H185.264V91.5625C185.264 96.9987 184.629 101.54 183.359 105.186C182.09 108.799 180.072 111.501 177.305 113.291C174.57 115.081 171.006 115.977 166.611 115.977ZM201.348 115V29.0625H230.156V40.3418H214.434V65.3418H229.375V76.377H214.434V103.721H230.742V115H201.348Z" fill="white"/>
<path d="M78.6747 151.976C77.3956 151.685 76.2037 151.191 75.099 150.493C73.9943 149.796 73.064 148.836 72.3082 147.615L75.2734 143.168C78.0642 139.039 80.5643 136.249 82.7737 134.795C85.0412 133.342 87.4831 132.615 90.0995 132.615C92.5996 132.615 94.7217 133.342 96.466 134.795C98.2684 136.191 99.5475 138.138 100.303 140.638C101.641 138.08 103.385 136.103 105.536 134.708C107.745 133.313 110.216 132.615 112.949 132.615C118.647 132.615 122.513 135.551 124.548 141.423C125.944 138.632 127.833 136.481 130.217 134.97C132.601 133.4 135.305 132.615 138.328 132.615C142.456 132.615 145.625 133.923 147.834 136.539C150.043 139.156 151.148 142.848 151.148 147.615V159.738C151.148 162.936 151.555 165.232 152.369 166.628C153.241 168.023 154.608 168.721 156.468 168.721C157.282 168.721 157.893 169.07 158.299 169.767C158.765 170.465 158.997 171.395 158.997 172.558C158.997 173.488 158.736 174.331 158.212 175.087C157.747 175.843 156.962 176.221 155.858 176.221C147.427 176.221 143.212 171.046 143.212 160.697V149.534C143.212 146.511 142.659 144.185 141.555 142.557C140.45 140.929 138.88 140.115 136.845 140.115C133.764 140.115 131.322 141.888 129.519 145.435C127.775 148.924 126.903 153.778 126.903 159.999V175C126.322 175.174 125.682 175.32 124.984 175.436C124.287 175.552 123.618 175.61 122.979 175.61C121.583 175.61 120.246 175.407 118.967 175V150.755C118.967 147.325 118.356 144.708 117.135 142.906C115.972 141.045 114.228 140.115 111.903 140.115C109.809 140.115 107.949 140.958 106.321 142.644C104.751 144.272 103.501 146.598 102.571 149.621C101.699 152.586 101.263 156.046 101.263 159.999V175C100.681 175.174 100.042 175.32 99.344 175.436C98.6463 175.552 97.9777 175.61 97.3381 175.61C95.8846 175.61 94.5764 175.407 93.4136 175V147.179C93.4136 142.47 92.0763 140.115 89.4018 140.115C88.5297 140.115 87.5413 140.522 86.4366 141.336C85.39 142.092 83.9656 143.865 82.1632 146.656L78.6747 151.976ZM154.763 168.721C156.739 168.721 158.658 167.761 160.519 165.843C162.437 163.866 164.036 161.22 165.315 157.906C165.257 157.092 165.228 156.278 165.228 155.464C165.228 151.046 166.1 147.121 167.844 143.691C169.589 140.26 171.943 137.557 174.909 135.58C177.932 133.603 181.362 132.615 185.2 132.615C187.235 132.615 189.241 133.022 191.217 133.836C193.194 134.592 194.851 135.638 196.188 136.975V133.4C196.712 133.225 197.322 133.08 198.02 132.964C198.718 132.847 199.444 132.789 200.2 132.789C201.596 132.789 202.904 132.993 204.125 133.4V158.953C204.125 162.034 204.59 164.447 205.52 166.192C206.509 167.878 208.137 168.721 210.404 168.721C211.392 168.721 212.061 169.128 212.41 169.942C212.759 170.756 212.933 171.628 212.933 172.558C212.933 173.488 212.672 174.331 212.148 175.087C211.683 175.843 210.898 176.221 209.794 176.221C204.096 176.221 200.287 173.663 198.369 168.546C196.683 170.93 194.56 172.82 192.002 174.215C189.502 175.552 186.711 176.221 183.63 176.221C180.258 176.221 177.263 175.494 174.647 174.041C172.089 172.529 169.996 170.465 168.368 167.849C164.763 173.43 160.024 176.221 154.152 176.221C153.396 176.221 152.786 175.872 152.321 175.174C151.856 174.477 151.623 173.576 151.623 172.471C151.623 169.971 152.67 168.721 154.763 168.721ZM173.339 155.464C173.339 159.592 174.269 162.848 176.13 165.232C178.048 167.558 180.665 168.721 183.979 168.721C187.642 168.721 190.578 167.471 192.787 164.971C195.055 162.471 196.188 159.186 196.188 155.116V145.348C195.026 143.778 193.543 142.528 191.741 141.598C189.938 140.609 188.078 140.115 186.159 140.115C183.659 140.115 181.45 140.784 179.531 142.121C177.612 143.458 176.101 145.29 174.996 147.615C173.891 149.883 173.339 152.499 173.339 155.464ZM208.633 168.721C210.61 168.721 212.529 167.761 214.389 165.843C216.308 163.866 217.907 161.22 219.186 157.906C219.128 157.092 219.099 156.278 219.099 155.464C219.099 151.046 219.971 147.121 221.715 143.691C223.459 140.26 225.814 137.557 228.779 135.58C231.803 133.603 235.233 132.615 239.07 132.615C241.105 132.615 243.111 133.022 245.088 133.836C247.065 134.592 248.722 135.638 250.059 136.975V101.742C251.164 101.335 252.501 101.131 254.071 101.131C255.408 101.131 256.716 101.335 257.995 101.742V159.738C257.995 162.936 258.402 165.232 259.216 166.628C260.088 168.023 261.455 168.721 263.315 168.721C264.129 168.721 264.74 169.07 265.147 169.767C265.612 170.465 265.845 171.395 265.845 172.558C265.845 173.488 265.583 174.331 265.06 175.087C264.594 175.843 263.81 176.221 262.705 176.221C257.181 176.221 253.46 173.953 251.542 169.418C249.856 171.57 247.821 173.256 245.437 174.477C243.053 175.64 240.408 176.221 237.501 176.221C234.128 176.221 231.134 175.494 228.518 174.041C225.959 172.529 223.866 170.465 222.238 167.849C218.634 173.43 213.895 176.221 208.023 176.221C207.267 176.221 206.656 175.872 206.191 175.174C205.726 174.477 205.494 173.576 205.494 172.471C205.494 169.971 206.54 168.721 208.633 168.721ZM227.209 155.464C227.209 159.592 228.14 162.848 230 165.232C231.919 167.558 234.535 168.721 237.849 168.721C241.512 168.721 244.448 167.471 246.658 164.971C248.925 162.471 250.059 159.186 250.059 155.116V145.348C248.896 143.778 247.414 142.528 245.611 141.598C243.809 140.609 241.948 140.115 240.03 140.115C237.53 140.115 235.32 140.784 233.402 142.121C231.483 143.458 229.971 145.29 228.866 147.615C227.762 149.883 227.209 152.499 227.209 155.464ZM260.957 176.221C260.201 176.221 259.59 175.872 259.125 175.174C258.66 174.477 258.427 173.576 258.427 172.471C258.427 171.308 258.718 170.407 259.299 169.767C259.823 169.07 260.55 168.721 261.48 168.721C263.34 168.721 265.346 168.052 267.497 166.715C269.649 165.378 271.742 163.546 273.777 161.22C273.312 159.069 272.934 156.54 272.643 153.633C272.41 150.726 272.236 147.208 272.12 143.08C272.003 138.952 271.945 133.981 271.945 128.167H272.032L271.945 128.08C271.945 122.905 272.003 118.516 272.12 114.911C272.236 111.306 272.469 108.283 272.817 105.841C273.166 103.399 273.602 101.335 274.126 99.6486C274.707 97.9043 275.434 96.3345 276.306 94.9391C277.585 92.846 279.155 91.3343 281.015 90.4041C282.934 89.4738 285.027 89.0087 287.295 89.0087C291.83 89.0087 295.318 91.0146 297.76 95.0263C300.202 99.0381 301.423 104.562 301.423 111.597C301.423 120.027 299.766 128.69 296.452 137.586C293.138 146.482 288.399 154.97 282.236 163.052C283.05 164.971 284.242 166.424 285.812 167.413C287.382 168.343 289.184 168.808 291.219 168.808C292.033 168.808 292.673 169.157 293.138 169.854C293.661 170.494 293.923 171.395 293.923 172.558C293.923 175 292.847 176.221 290.696 176.221C287.556 176.221 284.765 175.552 282.324 174.215C279.882 172.878 277.992 171.163 276.655 169.07C271.829 173.837 266.596 176.221 260.957 176.221ZM279.707 128.603C279.707 134.708 279.736 139.737 279.794 143.691C279.911 147.644 280.056 150.9 280.23 153.459C284.649 146.133 287.992 138.981 290.26 132.004C292.527 124.969 293.661 118.138 293.661 111.509C293.661 106.684 293.109 102.992 292.004 100.433C290.899 97.8171 289.33 96.5089 287.295 96.5089C285.027 96.5089 283.312 97.8462 282.149 100.521C281.568 101.916 281.073 103.689 280.666 105.841C280.318 107.934 280.056 110.783 279.882 114.387C279.765 117.992 279.707 122.731 279.707 128.603ZM289.336 176.221C288.464 176.221 287.795 175.872 287.33 175.174C286.807 174.477 286.545 173.576 286.545 172.471C286.545 171.308 286.836 170.407 287.417 169.767C287.999 169.128 288.755 168.808 289.685 168.808C293.813 168.808 297.476 167.645 300.674 165.319C303.929 162.936 306.488 159.68 308.348 155.552C310.209 151.424 311.139 146.714 311.139 141.423V133.836C311.662 133.661 312.273 133.516 312.97 133.4C313.668 133.283 314.395 133.225 315.151 133.225C316.488 133.225 317.796 133.429 319.075 133.836V158.953C319.075 162.034 319.54 164.447 320.471 166.192C321.459 167.878 323.087 168.721 325.355 168.721C326.343 168.721 327.012 169.128 327.36 169.942C327.709 170.756 327.884 171.628 327.884 172.558C327.884 173.488 327.622 174.331 327.099 175.087C326.634 175.843 325.849 176.221 324.744 176.221C317.535 176.221 313.348 172.151 312.186 164.011C309.627 167.849 306.371 170.843 302.418 172.994C298.522 175.145 294.162 176.221 289.336 176.221ZM315.238 121.277C313.61 121.277 312.215 120.696 311.052 119.533C309.889 118.37 309.308 116.975 309.308 115.347C309.308 113.603 309.86 112.178 310.965 111.073C312.127 109.969 313.552 109.416 315.238 109.416C316.982 109.416 318.407 109.969 319.511 111.073C320.616 112.178 321.168 113.603 321.168 115.347C321.168 117.033 320.587 118.457 319.424 119.62C318.319 120.725 316.924 121.277 315.238 121.277ZM322.962 176.221C322.207 176.221 321.596 175.872 321.131 175.174C320.666 174.477 320.433 173.576 320.433 172.471C320.433 171.308 320.724 170.407 321.305 169.767C321.829 169.07 322.555 168.721 323.486 168.721C325.579 168.721 327.846 167.878 330.288 166.192C332.73 164.505 335.085 162.18 337.352 159.215C336.422 154.97 335.957 149.04 335.957 141.423V117.178C335.957 112.353 336.102 108.457 336.393 105.492C336.742 102.527 337.294 100.056 338.05 98.0788C339.155 95.1717 340.754 92.9332 342.847 91.3634C344.94 89.7936 347.411 89.0087 350.26 89.0087C354.213 89.0087 357.382 90.9564 359.766 94.8519C362.15 98.6893 363.342 103.864 363.342 110.376C363.342 115.899 362.644 121.597 361.249 127.469C359.911 133.342 357.935 139.156 355.318 144.912C352.702 150.61 349.533 155.988 345.812 161.046C345.986 161.453 346.161 161.831 346.335 162.18C347.556 164.331 348.981 165.93 350.609 166.976C352.295 167.965 354.359 168.459 356.801 168.459C359.417 168.459 361.714 167.732 363.691 166.279C365.667 164.825 367.208 162.819 368.313 160.261C369.417 157.645 369.97 154.65 369.97 151.278C369.97 150.057 369.883 148.836 369.708 147.615C366.045 145.29 363.632 143.226 362.47 141.423C362.877 140.26 363.516 139.156 364.388 138.109C365.319 137.005 366.336 136.132 367.441 135.493C368.545 134.795 369.592 134.446 370.58 134.446C371.918 134.446 373.139 135.173 374.243 136.627C375.348 138.022 376.22 139.912 376.86 142.295C377.557 144.621 377.906 147.208 377.906 150.057C377.906 155.29 377.034 159.854 375.29 163.75C373.604 167.587 371.162 170.581 367.964 172.732C364.824 174.826 361.103 175.872 356.801 175.872C349.184 175.872 343.69 173.023 340.318 167.325C334.969 173.256 329.184 176.221 322.962 176.221ZM343.283 139.679C343.283 144.388 343.428 148.255 343.719 151.278C347.731 144.418 350.754 137.47 352.789 130.435C354.882 123.399 355.929 116.684 355.929 110.288C355.929 100.928 353.894 96.2473 349.824 96.2473C347.44 96.2473 345.725 97.8462 344.678 101.044C343.748 103.893 343.283 108.922 343.283 116.132V139.679ZM393.745 176.221C391.71 176.221 389.675 175.901 387.641 175.262C385.606 174.68 383.483 173.721 381.274 172.384C381.158 169.302 382.321 167.035 384.763 165.581C387.96 167.674 390.984 168.721 393.833 168.721C396.275 168.721 398.222 168.081 399.676 166.802C401.129 165.465 401.856 163.779 401.856 161.744C401.856 159.186 400.461 156.802 397.67 154.592L391.042 149.36C388.891 147.673 387.234 145.871 386.071 143.952C381.478 146.801 376.565 148.226 371.332 148.226C370.402 148.226 369.617 147.877 368.977 147.179C368.338 146.482 368.018 145.58 368.018 144.476C368.018 142.092 369.006 140.9 370.983 140.9C373.134 140.9 375.373 140.522 377.698 139.766C379.966 138.952 382.001 137.818 383.803 136.365C383.803 136.191 383.803 135.987 383.803 135.754C383.803 132.847 384.326 130.696 385.373 129.301C386.478 127.905 387.379 127.062 388.077 126.772C389.065 126.539 390.112 126.568 391.216 126.859C392.379 127.091 393.426 127.498 394.356 128.08C395.286 128.661 395.926 129.359 396.275 130.173C395.984 131.917 395.431 133.574 394.618 135.144C393.804 136.656 392.815 138.051 391.652 139.33C392.059 140.086 392.583 140.813 393.222 141.51C393.92 142.208 394.792 142.964 395.838 143.778L402.467 149.185C404.85 151.104 406.624 153.11 407.787 155.203C409.008 157.238 409.618 159.534 409.618 162.093C409.618 164.767 408.949 167.18 407.612 169.331C406.275 171.482 404.414 173.169 402.031 174.39C399.647 175.61 396.885 176.221 393.745 176.221Z" fill="white"/>
<path d="M163.56 213L157.94 199H159.64L165.34 213H163.56ZM152.18 213L157.88 199H159.6L153.98 213H152.18ZM154.88 209.02V207.5H162.66V209.02H154.88ZM173.517 208.2L172.817 206.66L180.177 199H182.297L173.517 208.2ZM172.337 213V199H173.957V213H172.337ZM180.497 213L174.757 205.88L175.857 204.8L182.557 213H180.497ZM183.844 207.78V206.32H189.844V207.78H183.844ZM192.883 213V199H197.443C198.35 199 199.15 199.187 199.843 199.56C200.55 199.933 201.097 200.453 201.483 201.12C201.883 201.787 202.083 202.56 202.083 203.44C202.083 204.293 201.903 205.053 201.543 205.72C201.183 206.387 200.69 206.913 200.063 207.3C199.437 207.673 198.71 207.86 197.883 207.86H194.583V213H192.883ZM194.583 206.32H197.883C198.617 206.32 199.217 206.053 199.683 205.52C200.163 204.973 200.403 204.28 200.403 203.44C200.403 202.573 200.123 201.873 199.563 201.34C199.003 200.807 198.29 200.54 197.423 200.54H194.583V206.32ZM208.23 213.24C207.257 213.24 206.39 213.02 205.63 212.58C204.883 212.127 204.297 211.507 203.87 210.72C203.443 209.933 203.23 209.027 203.23 208C203.23 206.973 203.437 206.067 203.85 205.28C204.277 204.493 204.863 203.88 205.61 203.44C206.37 202.987 207.23 202.76 208.19 202.76C209.177 202.76 210.043 202.987 210.79 203.44C211.55 203.88 212.137 204.493 212.55 205.28C212.977 206.067 213.19 206.973 213.19 208C213.19 209.027 212.977 209.933 212.55 210.72C212.137 211.507 211.557 212.127 210.81 212.58C210.063 213.02 209.203 213.24 208.23 213.24ZM208.23 211.76C208.897 211.76 209.477 211.6 209.97 211.28C210.463 210.96 210.85 210.52 211.13 209.96C211.423 209.4 211.57 208.747 211.57 208C211.57 207.253 211.423 206.6 211.13 206.04C210.85 205.48 210.457 205.04 209.95 204.72C209.443 204.4 208.857 204.24 208.19 204.24C207.537 204.24 206.957 204.4 206.45 204.72C205.957 205.04 205.563 205.48 205.27 206.04C204.99 206.6 204.85 207.253 204.85 208C204.85 208.733 204.99 209.387 205.27 209.96C205.563 210.52 205.963 210.96 206.47 211.28C206.99 211.6 207.577 211.76 208.23 211.76ZM215.512 217V203H217.012L217.112 204.84V217H215.512ZM220.492 213.24C219.652 213.24 218.912 213.02 218.272 212.58C217.645 212.14 217.158 211.527 216.812 210.74C216.465 209.94 216.292 209.027 216.292 208C216.292 206.96 216.465 206.047 216.812 205.26C217.158 204.473 217.645 203.86 218.272 203.42C218.912 202.98 219.652 202.76 220.492 202.76C221.385 202.76 222.172 202.98 222.852 203.42C223.532 203.86 224.058 204.473 224.432 205.26C224.818 206.047 225.012 206.96 225.012 208C225.012 209.027 224.818 209.94 224.432 210.74C224.058 211.527 223.532 212.14 222.852 212.58C222.172 213.02 221.385 213.24 220.492 213.24ZM220.132 211.78C220.758 211.78 221.312 211.62 221.792 211.3C222.285 210.98 222.672 210.533 222.952 209.96C223.245 209.387 223.392 208.733 223.392 208C223.392 207.267 223.252 206.613 222.972 206.04C222.705 205.467 222.325 205.02 221.832 204.7C221.338 204.38 220.778 204.22 220.152 204.22C219.565 204.22 219.038 204.38 218.572 204.7C218.118 205.02 217.758 205.467 217.492 206.04C217.238 206.613 217.112 207.267 217.112 208C217.112 208.733 217.238 209.387 217.492 209.96C217.758 210.533 218.118 210.98 218.572 211.3C219.025 211.62 219.545 211.78 220.132 211.78ZM238.53 213.24C237.196 213.24 236.016 212.933 234.99 212.32C233.963 211.693 233.156 210.84 232.57 209.76C231.983 208.667 231.69 207.413 231.69 206C231.69 204.587 231.976 203.34 232.55 202.26C233.136 201.167 233.936 200.313 234.95 199.7C235.976 199.073 237.15 198.76 238.47 198.76C239.31 198.76 240.116 198.913 240.89 199.22C241.663 199.513 242.356 199.933 242.97 200.48C243.583 201.013 244.056 201.633 244.39 202.34L242.93 203.08C242.663 202.52 242.296 202.033 241.83 201.62C241.363 201.207 240.843 200.887 240.27 200.66C239.696 200.42 239.096 200.3 238.47 200.3C237.496 200.3 236.623 200.547 235.85 201.04C235.076 201.52 234.47 202.187 234.03 203.04C233.603 203.893 233.39 204.88 233.39 206C233.39 207.12 233.61 208.113 234.05 208.98C234.49 209.847 235.096 210.527 235.87 211.02C236.656 211.5 237.543 211.74 238.53 211.74C239.17 211.74 239.776 211.613 240.35 211.36C240.923 211.093 241.436 210.733 241.89 210.28C242.356 209.827 242.723 209.307 242.99 208.72L244.47 209.46C244.123 210.193 243.643 210.847 243.03 211.42C242.43 211.993 241.736 212.44 240.95 212.76C240.176 213.08 239.37 213.24 238.53 213.24ZM251.004 213.24C250.03 213.24 249.164 213.02 248.404 212.58C247.657 212.127 247.07 211.507 246.644 210.72C246.217 209.933 246.004 209.027 246.004 208C246.004 206.973 246.21 206.067 246.624 205.28C247.05 204.493 247.637 203.88 248.384 203.44C249.144 202.987 250.004 202.76 250.964 202.76C251.95 202.76 252.817 202.987 253.564 203.44C254.324 203.88 254.91 204.493 255.324 205.28C255.75 206.067 255.964 206.973 255.964 208C255.964 209.027 255.75 209.933 255.324 210.72C254.91 211.507 254.33 212.127 253.584 212.58C252.837 213.02 251.977 213.24 251.004 213.24ZM251.004 211.76C251.67 211.76 252.25 211.6 252.744 211.28C253.237 210.96 253.624 210.52 253.904 209.96C254.197 209.4 254.344 208.747 254.344 208C254.344 207.253 254.197 206.6 253.904 206.04C253.624 205.48 253.23 205.04 252.724 204.72C252.217 204.4 251.63 204.24 250.964 204.24C250.31 204.24 249.73 204.4 249.224 204.72C248.73 205.04 248.337 205.48 248.044 206.04C247.764 206.6 247.624 207.253 247.624 208C247.624 208.733 247.764 209.387 248.044 209.96C248.337 210.52 248.737 210.96 249.244 211.28C249.764 211.6 250.35 211.76 251.004 211.76ZM258.185 213V203H259.685L259.785 204.84V213H258.185ZM265.205 213V207.88H266.805V213H265.205ZM265.205 207.88C265.205 206.893 265.092 206.14 264.865 205.62C264.638 205.1 264.325 204.747 263.925 204.56C263.525 204.36 263.072 204.26 262.565 204.26C261.685 204.26 260.998 204.573 260.505 205.2C260.025 205.813 259.785 206.687 259.785 207.82H259.005C259.005 206.767 259.158 205.86 259.465 205.1C259.772 204.34 260.218 203.76 260.805 203.36C261.392 202.96 262.098 202.76 262.925 202.76C263.712 202.76 264.392 202.92 264.965 203.24C265.552 203.547 266.005 204.04 266.325 204.72C266.658 205.4 266.818 206.293 266.805 207.4V207.88H265.205ZM273.798 213.24C272.811 213.24 271.938 213.02 271.178 212.58C270.418 212.127 269.824 211.507 269.398 210.72C268.971 209.933 268.758 209.027 268.758 208C268.758 206.973 268.964 206.067 269.378 205.28C269.804 204.493 270.398 203.88 271.158 203.44C271.918 202.987 272.784 202.76 273.758 202.76C274.718 202.76 275.578 202.98 276.338 203.42C277.098 203.86 277.678 204.48 278.078 205.28L276.618 205.94C276.351 205.407 275.964 204.993 275.458 204.7C274.951 204.393 274.371 204.24 273.718 204.24C273.064 204.24 272.484 204.4 271.978 204.72C271.484 205.04 271.091 205.487 270.798 206.06C270.518 206.62 270.378 207.267 270.378 208C270.378 208.733 270.518 209.387 270.798 209.96C271.091 210.52 271.491 210.96 271.998 211.28C272.518 211.6 273.104 211.76 273.758 211.76C274.411 211.76 274.991 211.593 275.498 211.26C276.018 210.927 276.411 210.46 276.678 209.86L278.138 210.52C277.738 211.373 277.158 212.04 276.398 212.52C275.638 213 274.771 213.24 273.798 213.24ZM284.538 213.24C283.564 213.24 282.704 213.02 281.958 212.58C281.211 212.127 280.624 211.507 280.198 210.72C279.784 209.933 279.578 209.027 279.578 208C279.578 206.973 279.784 206.067 280.198 205.28C280.624 204.493 281.204 203.88 281.938 203.44C282.684 202.987 283.538 202.76 284.498 202.76C285.431 202.76 286.238 202.993 286.918 203.46C287.598 203.913 288.124 204.553 288.498 205.38C288.871 206.207 289.058 207.18 289.058 208.3H280.798L281.198 207.96C281.198 208.76 281.338 209.447 281.618 210.02C281.911 210.593 282.318 211.033 282.838 211.34C283.358 211.633 283.951 211.78 284.618 211.78C285.324 211.78 285.918 211.613 286.398 211.28C286.891 210.947 287.271 210.507 287.538 209.96L288.918 210.66C288.664 211.18 288.324 211.633 287.898 212.02C287.484 212.407 286.991 212.707 286.418 212.92C285.858 213.133 285.231 213.24 284.538 213.24ZM281.298 207.28L280.878 206.96H287.778L287.358 207.3C287.358 206.66 287.231 206.107 286.978 205.64C286.724 205.173 286.384 204.813 285.958 204.56C285.531 204.307 285.038 204.18 284.478 204.18C283.931 204.18 283.411 204.307 282.918 204.56C282.438 204.813 282.044 205.173 281.738 205.64C281.444 206.093 281.298 206.64 281.298 207.28ZM291.956 207.58C291.956 206.5 292.162 205.627 292.576 204.96C292.989 204.28 293.516 203.78 294.156 203.46C294.809 203.127 295.496 202.96 296.216 202.96V204.46C295.629 204.46 295.062 204.56 294.516 204.76C293.982 204.947 293.542 205.26 293.196 205.7C292.849 206.14 292.676 206.74 292.676 207.5L291.956 207.58ZM291.076 213V203H292.676V213H291.076ZM301.594 213.24C300.62 213.24 299.867 212.987 299.334 212.48C298.8 211.973 298.534 211.26 298.534 210.34V199.88H300.134V210.18C300.134 210.687 300.267 211.08 300.534 211.36C300.814 211.627 301.2 211.76 301.694 211.76C301.854 211.76 302.007 211.74 302.154 211.7C302.314 211.647 302.52 211.527 302.774 211.34L303.394 212.64C303.047 212.867 302.734 213.02 302.454 213.1C302.174 213.193 301.887 213.24 301.594 213.24ZM296.794 204.42V203H303.134V204.42H296.794ZM310.794 213V199H319.074V200.54H312.494V205.06H318.494V206.58H312.494V211.46H319.114V213H310.794ZM320.97 213L325.05 207.26L327.93 203H329.83L326.03 208.4L322.91 213H320.97ZM328.15 213L325.07 208.4L321.23 203H323.13L326.03 207.26L330.07 213H328.15ZM331.762 217V203H333.262L333.362 204.84V217H331.762ZM336.742 213.24C335.902 213.24 335.162 213.02 334.522 212.58C333.895 212.14 333.408 211.527 333.062 210.74C332.715 209.94 332.542 209.027 332.542 208C332.542 206.96 332.715 206.047 333.062 205.26C333.408 204.473 333.895 203.86 334.522 203.42C335.162 202.98 335.902 202.76 336.742 202.76C337.635 202.76 338.422 202.98 339.102 203.42C339.782 203.86 340.308 204.473 340.682 205.26C341.068 206.047 341.262 206.96 341.262 208C341.262 209.027 341.068 209.94 340.682 210.74C340.308 211.527 339.782 212.14 339.102 212.58C338.422 213.02 337.635 213.24 336.742 213.24ZM336.382 211.78C337.008 211.78 337.562 211.62 338.042 211.3C338.535 210.98 338.922 210.533 339.202 209.96C339.495 209.387 339.642 208.733 339.642 208C339.642 207.267 339.502 206.613 339.222 206.04C338.955 205.467 338.575 205.02 338.082 204.7C337.588 204.38 337.028 204.22 336.402 204.22C335.815 204.22 335.288 204.38 334.822 204.7C334.368 205.02 334.008 205.467 333.742 206.04C333.488 206.613 333.362 207.267 333.362 208C333.362 208.733 333.488 209.387 333.742 209.96C334.008 210.533 334.368 210.98 334.822 211.3C335.275 211.62 335.795 211.78 336.382 211.78ZM347.858 213.24C346.885 213.24 346.025 213.02 345.278 212.58C344.531 212.127 343.945 211.507 343.518 210.72C343.105 209.933 342.898 209.027 342.898 208C342.898 206.973 343.105 206.067 343.518 205.28C343.945 204.493 344.525 203.88 345.258 203.44C346.005 202.987 346.858 202.76 347.818 202.76C348.751 202.76 349.558 202.993 350.238 203.46C350.918 203.913 351.445 204.553 351.818 205.38C352.191 206.207 352.378 207.18 352.378 208.3H344.118L344.518 207.96C344.518 208.76 344.658 209.447 344.938 210.02C345.231 210.593 345.638 211.033 346.158 211.34C346.678 211.633 347.271 211.78 347.938 211.78C348.645 211.78 349.238 211.613 349.718 211.28C350.211 210.947 350.591 210.507 350.858 209.96L352.238 210.66C351.985 211.18 351.645 211.633 351.218 212.02C350.805 212.407 350.311 212.707 349.738 212.92C349.178 213.133 348.551 213.24 347.858 213.24ZM344.618 207.28L344.198 206.96H351.098L350.678 207.3C350.678 206.66 350.551 206.107 350.298 205.64C350.045 205.173 349.705 204.813 349.278 204.56C348.851 204.307 348.358 204.18 347.798 204.18C347.251 204.18 346.731 204.307 346.238 204.56C345.758 204.813 345.365 205.173 345.058 205.64C344.765 206.093 344.618 206.64 344.618 207.28ZM355.276 207.58C355.276 206.5 355.483 205.627 355.896 204.96C356.309 204.28 356.836 203.78 357.476 203.46C358.129 203.127 358.816 202.96 359.536 202.96V204.46C358.949 204.46 358.383 204.56 357.836 204.76C357.303 204.947 356.863 205.26 356.516 205.7C356.169 206.14 355.996 206.74 355.996 207.5L355.276 207.58ZM354.396 213V203H355.996V213H354.396ZM361.254 213V203H362.854V213H361.254ZM362.074 200.68C361.807 200.68 361.574 200.58 361.374 200.38C361.174 200.18 361.074 199.947 361.074 199.68C361.074 199.4 361.174 199.167 361.374 198.98C361.574 198.78 361.807 198.68 362.074 198.68C362.354 198.68 362.587 198.78 362.774 198.98C362.974 199.167 363.074 199.4 363.074 199.68C363.074 199.947 362.974 200.18 362.774 200.38C362.587 200.58 362.354 200.68 362.074 200.68ZM370.182 213.24C369.209 213.24 368.349 213.02 367.602 212.58C366.856 212.127 366.269 211.507 365.842 210.72C365.429 209.933 365.222 209.027 365.222 208C365.222 206.973 365.429 206.067 365.842 205.28C366.269 204.493 366.849 203.88 367.582 203.44C368.329 202.987 369.182 202.76 370.142 202.76C371.076 202.76 371.882 202.993 372.562 203.46C373.242 203.913 373.769 204.553 374.142 205.38C374.516 206.207 374.702 207.18 374.702 208.3H366.442L366.842 207.96C366.842 208.76 366.982 209.447 367.262 210.02C367.556 210.593 367.962 211.033 368.482 211.34C369.002 211.633 369.596 211.78 370.262 211.78C370.969 211.78 371.562 211.613 372.042 211.28C372.536 210.947 372.916 210.507 373.182 209.96L374.562 210.66C374.309 211.18 373.969 211.633 373.542 212.02C373.129 212.407 372.636 212.707 372.062 212.92C371.502 213.133 370.876 213.24 370.182 213.24ZM366.942 207.28L366.522 206.96H373.422L373.002 207.3C373.002 206.66 372.876 206.107 372.622 205.64C372.369 205.173 372.029 204.813 371.602 204.56C371.176 204.307 370.682 204.18 370.122 204.18C369.576 204.18 369.056 204.307 368.562 204.56C368.082 204.813 367.689 205.173 367.382 205.64C367.089 206.093 366.942 206.64 366.942 207.28ZM376.72 213V203H378.22L378.32 204.84V213H376.72ZM383.74 213V207.88H385.34V213H383.74ZM383.74 207.88C383.74 206.893 383.627 206.14 383.4 205.62C383.174 205.1 382.86 204.747 382.46 204.56C382.06 204.36 381.607 204.26 381.1 204.26C380.22 204.26 379.534 204.573 379.04 205.2C378.56 205.813 378.32 206.687 378.32 207.82H377.54C377.54 206.767 377.694 205.86 378 205.1C378.307 204.34 378.754 203.76 379.34 203.36C379.927 202.96 380.634 202.76 381.46 202.76C382.247 202.76 382.927 202.92 383.5 203.24C384.087 203.547 384.54 204.04 384.86 204.72C385.194 205.4 385.354 206.293 385.34 207.4V207.88H383.74ZM392.333 213.24C391.346 213.24 390.473 213.02 389.713 212.58C388.953 212.127 388.359 211.507 387.933 210.72C387.506 209.933 387.293 209.027 387.293 208C387.293 206.973 387.499 206.067 387.913 205.28C388.339 204.493 388.933 203.88 389.693 203.44C390.453 202.987 391.319 202.76 392.293 202.76C393.253 202.76 394.113 202.98 394.873 203.42C395.633 203.86 396.213 204.48 396.613 205.28L395.153 205.94C394.886 205.407 394.499 204.993 393.993 204.7C393.486 204.393 392.906 204.24 392.253 204.24C391.599 204.24 391.019 204.4 390.513 204.72C390.019 205.04 389.626 205.487 389.333 206.06C389.053 206.62 388.913 207.267 388.913 208C388.913 208.733 389.053 209.387 389.333 209.96C389.626 210.52 390.026 210.96 390.533 211.28C391.053 211.6 391.639 211.76 392.293 211.76C392.946 211.76 393.526 211.593 394.033 211.26C394.553 210.927 394.946 210.46 395.213 209.86L396.673 210.52C396.273 211.373 395.693 212.04 394.933 212.52C394.173 213 393.306 213.24 392.333 213.24ZM403.073 213.24C402.1 213.24 401.24 213.02 400.493 212.58C399.746 212.127 399.16 211.507 398.733 210.72C398.32 209.933 398.113 209.027 398.113 208C398.113 206.973 398.32 206.067 398.733 205.28C399.16 204.493 399.74 203.88 400.473 203.44C401.22 202.987 402.073 202.76 403.033 202.76C403.966 202.76 404.773 202.993 405.453 203.46C406.133 203.913 406.66 204.553 407.033 205.38C407.406 206.207 407.593 207.18 407.593 208.3H399.333L399.733 207.96C399.733 208.76 399.873 209.447 400.153 210.02C400.446 210.593 400.853 211.033 401.373 211.34C401.893 211.633 402.486 211.78 403.153 211.78C403.86 211.78 404.453 211.613 404.933 211.28C405.426 210.947 405.806 210.507 406.073 209.96L407.453 210.66C407.2 211.18 406.86 211.633 406.433 212.02C406.02 212.407 405.526 212.707 404.953 212.92C404.393 213.133 403.766 213.24 403.073 213.24ZM399.833 207.28L399.413 206.96H406.313L405.893 207.3C405.893 206.66 405.766 206.107 405.513 205.64C405.26 205.173 404.92 204.813 404.493 204.56C404.066 204.307 403.573 204.18 403.013 204.18C402.466 204.18 401.946 204.307 401.453 204.56C400.973 204.813 400.58 205.173 400.273 205.64C399.98 206.093 399.833 206.64 399.833 207.28Z" fill="white"/>
</svg>
