<svg width="412" height="263" viewBox="0 0 412 263" fill="none" xmlns="http://www.w3.org/2000/svg">
<path d="M10.9375 115V40.3906H0.878906V29.0625H33.6426V40.3906H23.9746V115H10.9375ZM52.3145 115L41.8164 29.0625H53.5352L59.834 90.293L67.8418 29.0625H78.3887L86.4453 90.293L92.0117 29.0625H103.779L93.916 115H80.8789L73.2617 57.8711L65.3516 115H52.3145ZM117.715 115V29.0625H130.801V115H117.715ZM166.611 115.977C162.445 115.977 158.978 115.016 156.211 113.096C153.444 111.175 151.361 108.376 149.961 104.697C148.594 100.986 147.91 96.5104 147.91 91.2695V53.8184C147.91 49.8796 148.236 46.3314 148.887 43.1738C149.538 40.0163 150.596 37.3145 152.061 35.0684C153.525 32.8223 155.479 31.097 157.92 29.8926C160.361 28.6882 163.372 28.0859 166.953 28.0859C170.208 28.0859 172.975 28.623 175.254 29.6973C177.565 30.7389 179.437 32.2526 180.869 34.2383C182.334 36.224 183.392 38.6328 184.043 41.4648C184.727 44.2643 185.068 47.4219 185.068 50.9375V62.7539H172.422V51.7676C172.422 47.5358 172.064 44.4271 171.348 42.4414C170.632 40.4232 169.199 39.4141 167.051 39.4141C164.674 39.4141 163.079 40.5046 162.266 42.6855C161.484 44.834 161.094 47.8451 161.094 51.7188V91.8555C161.094 94.8503 161.257 97.3079 161.582 99.2285C161.94 101.117 162.526 102.516 163.34 103.428C164.154 104.307 165.293 104.746 166.758 104.746C168.971 104.746 170.469 103.704 171.25 101.621C172.031 99.5378 172.422 96.2337 172.422 91.709V79.4043H185.264V91.5625C185.264 96.9987 184.629 101.54 183.359 105.186C182.09 108.799 180.072 111.501 177.305 113.291C174.57 115.081 171.006 115.977 166.611 115.977ZM201.348 115V29.0625H230.156V40.3418H214.434V65.3418H229.375V76.377H214.434V103.721H230.742V115H201.348Z" fill="white"/>
<path d="M78.6747 151.976C77.3956 151.685 76.2037 151.191 75.099 150.493C73.9943 149.796 73.064 148.836 72.3082 147.615L75.2734 143.168C78.0642 139.039 80.5643 136.249 82.7737 134.795C85.0412 133.342 87.4831 132.615 90.0995 132.615C92.5996 132.615 94.7217 133.342 96.466 134.795C98.2684 136.191 99.5475 138.138 100.303 140.638C101.641 138.08 103.385 136.103 105.536 134.708C107.745 133.313 110.216 132.615 112.949 132.615C118.647 132.615 122.513 135.551 124.548 141.423C125.944 138.632 127.833 136.481 130.217 134.97C132.601 133.4 135.305 132.615 138.328 132.615C142.456 132.615 145.625 133.923 147.834 136.539C150.043 139.156 151.148 142.848 151.148 147.615V159.738C151.148 162.936 151.555 165.232 152.369 166.628C153.241 168.023 154.608 168.721 156.468 168.721C157.282 168.721 157.893 169.07 158.299 169.767C158.765 170.465 158.997 171.395 158.997 172.558C158.997 173.488 158.736 174.331 158.212 175.087C157.747 175.843 156.962 176.221 155.858 176.221C147.427 176.221 143.212 171.046 143.212 160.697V149.534C143.212 146.511 142.659 144.185 141.555 142.557C140.45 140.929 138.88 140.115 136.845 140.115C133.764 140.115 131.322 141.888 129.519 145.435C127.775 148.924 126.903 153.778 126.903 159.999V175C126.322 175.174 125.682 175.32 124.984 175.436C124.287 175.552 123.618 175.61 122.979 175.61C121.583 175.61 120.246 175.407 118.967 175V150.755C118.967 147.325 118.356 144.708 117.135 142.906C115.972 141.045 114.228 140.115 111.903 140.115C109.809 140.115 107.949 140.958 106.321 142.644C104.751 144.272 103.501 146.598 102.571 149.621C101.699 152.586 101.263 156.046 101.263 159.999V175C100.681 175.174 100.042 175.32 99.344 175.436C98.6463 175.552 97.9777 175.61 97.3381 175.61C95.8846 175.61 94.5764 175.407 93.4136 175V147.179C93.4136 142.47 92.0763 140.115 89.4018 140.115C88.5297 140.115 87.5413 140.522 86.4366 141.336C85.39 142.092 83.9656 143.865 82.1632 146.656L78.6747 151.976ZM154.763 168.721C156.739 168.721 158.658 167.761 160.519 165.843C162.437 163.866 164.036 161.22 165.315 157.906C165.257 157.092 165.228 156.278 165.228 155.464C165.228 151.046 166.1 147.121 167.844 143.691C169.589 140.26 171.943 137.557 174.909 135.58C177.932 133.603 181.362 132.615 185.2 132.615C187.235 132.615 189.241 133.022 191.217 133.836C193.194 134.592 194.851 135.638 196.188 136.975V133.4C196.712 133.225 197.322 133.08 198.02 132.964C198.718 132.847 199.444 132.789 200.2 132.789C201.596 132.789 202.904 132.993 204.125 133.4V158.953C204.125 162.034 204.59 164.447 205.52 166.192C206.509 167.878 208.137 168.721 210.404 168.721C211.392 168.721 212.061 169.128 212.41 169.942C212.759 170.756 212.933 171.628 212.933 172.558C212.933 173.488 212.672 174.331 212.148 175.087C211.683 175.843 210.898 176.221 209.794 176.221C204.096 176.221 200.287 173.663 198.369 168.546C196.683 170.93 194.56 172.82 192.002 174.215C189.502 175.552 186.711 176.221 183.63 176.221C180.258 176.221 177.263 175.494 174.647 174.041C172.089 172.529 169.996 170.465 168.368 167.849C164.763 173.43 160.024 176.221 154.152 176.221C153.396 176.221 152.786 175.872 152.321 175.174C151.856 174.477 151.623 173.576 151.623 172.471C151.623 169.971 152.67 168.721 154.763 168.721ZM173.339 155.464C173.339 159.592 174.269 162.848 176.13 165.232C178.048 167.558 180.665 168.721 183.979 168.721C187.642 168.721 190.578 167.471 192.787 164.971C195.055 162.471 196.188 159.186 196.188 155.116V145.348C195.026 143.778 193.543 142.528 191.741 141.598C189.938 140.609 188.078 140.115 186.159 140.115C183.659 140.115 181.45 140.784 179.531 142.121C177.612 143.458 176.101 145.29 174.996 147.615C173.891 149.883 173.339 152.499 173.339 155.464ZM208.633 168.721C210.61 168.721 212.529 167.761 214.389 165.843C216.308 163.866 217.907 161.22 219.186 157.906C219.128 157.092 219.099 156.278 219.099 155.464C219.099 151.046 219.971 147.121 221.715 143.691C223.459 140.26 225.814 137.557 228.779 135.58C231.803 133.603 235.233 132.615 239.07 132.615C241.105 132.615 243.111 133.022 245.088 133.836C247.065 134.592 248.722 135.638 250.059 136.975V101.742C251.164 101.335 252.501 101.131 254.071 101.131C255.408 101.131 256.716 101.335 257.995 101.742V159.738C257.995 162.936 258.402 165.232 259.216 166.628C260.088 168.023 261.455 168.721 263.315 168.721C264.129 168.721 264.74 169.07 265.147 169.767C265.612 170.465 265.845 171.395 265.845 172.558C265.845 173.488 265.583 174.331 265.06 175.087C264.594 175.843 263.81 176.221 262.705 176.221C257.181 176.221 253.46 173.953 251.542 169.418C249.856 171.57 247.821 173.256 245.437 174.477C243.053 175.64 240.408 176.221 237.501 176.221C234.128 176.221 231.134 175.494 228.518 174.041C225.959 172.529 223.866 170.465 222.238 167.849C218.634 173.43 213.895 176.221 208.023 176.221C207.267 176.221 206.656 175.872 206.191 175.174C205.726 174.477 205.494 173.576 205.494 172.471C205.494 169.971 206.54 168.721 208.633 168.721ZM227.209 155.464C227.209 159.592 228.14 162.848 230 165.232C231.919 167.558 234.535 168.721 237.849 168.721C241.512 168.721 244.448 167.471 246.658 164.971C248.925 162.471 250.059 159.186 250.059 155.116V145.348C248.896 143.778 247.414 142.528 245.611 141.598C243.809 140.609 241.948 140.115 240.03 140.115C237.53 140.115 235.32 140.784 233.402 142.121C231.483 143.458 229.971 145.29 228.866 147.615C227.762 149.883 227.209 152.499 227.209 155.464ZM260.957 176.221C260.201 176.221 259.59 175.872 259.125 175.174C258.66 174.477 258.427 173.576 258.427 172.471C258.427 171.308 258.718 170.407 259.299 169.767C259.823 169.07 260.55 168.721 261.48 168.721C263.34 168.721 265.346 168.052 267.497 166.715C269.649 165.378 271.742 163.546 273.777 161.22C273.312 159.069 272.934 156.54 272.643 153.633C272.41 150.726 272.236 147.208 272.12 143.08C272.003 138.952 271.945 133.981 271.945 128.167H272.032L271.945 128.08C271.945 122.905 272.003 118.516 272.12 114.911C272.236 111.306 272.469 108.283 272.817 105.841C273.166 103.399 273.602 101.335 274.126 99.6486C274.707 97.9043 275.434 96.3345 276.306 94.9391C277.585 92.846 279.155 91.3343 281.015 90.4041C282.934 89.4738 285.027 89.0087 287.295 89.0087C291.83 89.0087 295.318 91.0146 297.76 95.0263C300.202 99.0381 301.423 104.562 301.423 111.597C301.423 120.027 299.766 128.69 296.452 137.586C293.138 146.482 288.399 154.97 282.236 163.052C283.05 164.971 284.242 166.424 285.812 167.413C287.382 168.343 289.184 168.808 291.219 168.808C292.033 168.808 292.673 169.157 293.138 169.854C293.661 170.494 293.923 171.395 293.923 172.558C293.923 175 292.847 176.221 290.696 176.221C287.556 176.221 284.765 175.552 282.324 174.215C279.882 172.878 277.992 171.163 276.655 169.07C271.829 173.837 266.596 176.221 260.957 176.221ZM279.707 128.603C279.707 134.708 279.736 139.737 279.794 143.691C279.911 147.644 280.056 150.9 280.23 153.459C284.649 146.133 287.992 138.981 290.26 132.004C292.527 124.969 293.661 118.138 293.661 111.509C293.661 106.684 293.109 102.992 292.004 100.433C290.899 97.8171 289.33 96.5089 287.295 96.5089C285.027 96.5089 283.312 97.8462 282.149 100.521C281.568 101.916 281.073 103.689 280.666 105.841C280.318 107.934 280.056 110.783 279.882 114.387C279.765 117.992 279.707 122.731 279.707 128.603ZM289.336 176.221C288.464 176.221 287.795 175.872 287.33 175.174C286.807 174.477 286.545 173.576 286.545 172.471C286.545 171.308 286.836 170.407 287.417 169.767C287.999 169.128 288.755 168.808 289.685 168.808C293.813 168.808 297.476 167.645 300.674 165.319C303.929 162.936 306.488 159.68 308.348 155.552C310.209 151.424 311.139 146.714 311.139 141.423V133.836C311.662 133.661 312.273 133.516 312.97 133.4C313.668 133.283 314.395 133.225 315.151 133.225C316.488 133.225 317.796 133.429 319.075 133.836V158.953C319.075 162.034 319.54 164.447 320.471 166.192C321.459 167.878 323.087 168.721 325.355 168.721C326.343 168.721 327.012 169.128 327.36 169.942C327.709 170.756 327.884 171.628 327.884 172.558C327.884 173.488 327.622 174.331 327.099 175.087C326.634 175.843 325.849 176.221 324.744 176.221C317.535 176.221 313.348 172.151 312.186 164.011C309.627 167.849 306.371 170.843 302.418 172.994C298.522 175.145 294.162 176.221 289.336 176.221ZM315.238 121.277C313.61 121.277 312.215 120.696 311.052 119.533C309.889 118.37 309.308 116.975 309.308 115.347C309.308 113.603 309.86 112.178 310.965 111.073C312.127 109.969 313.552 109.416 315.238 109.416C316.982 109.416 318.407 109.969 319.511 111.073C320.616 112.178 321.168 113.603 321.168 115.347C321.168 117.033 320.587 118.457 319.424 119.62C318.319 120.725 316.924 121.277 315.238 121.277ZM322.962 176.221C322.207 176.221 321.596 175.872 321.131 175.174C320.666 174.477 320.433 173.576 320.433 172.471C320.433 171.308 320.724 170.407 321.305 169.767C321.829 169.07 322.555 168.721 323.486 168.721C325.579 168.721 327.846 167.878 330.288 166.192C332.73 164.505 335.085 162.18 337.352 159.215C336.422 154.97 335.957 149.04 335.957 141.423V117.178C335.957 112.353 336.102 108.457 336.393 105.492C336.742 102.527 337.294 100.056 338.05 98.0788C339.155 95.1717 340.754 92.9332 342.847 91.3634C344.94 89.7936 347.411 89.0087 350.26 89.0087C354.213 89.0087 357.382 90.9564 359.766 94.8519C362.15 98.6893 363.342 103.864 363.342 110.376C363.342 115.899 362.644 121.597 361.249 127.469C359.911 133.342 357.935 139.156 355.318 144.912C352.702 150.61 349.533 155.988 345.812 161.046C345.986 161.453 346.161 161.831 346.335 162.18C347.556 164.331 348.981 165.93 350.609 166.976C352.295 167.965 354.359 168.459 356.801 168.459C359.417 168.459 361.714 167.732 363.691 166.279C365.667 164.825 367.208 162.819 368.313 160.261C369.417 157.645 369.97 154.65 369.97 151.278C369.97 150.057 369.883 148.836 369.708 147.615C366.045 145.29 363.632 143.226 362.47 141.423C362.877 140.26 363.516 139.156 364.388 138.109C365.319 137.005 366.336 136.132 367.441 135.493C368.545 134.795 369.592 134.446 370.58 134.446C371.918 134.446 373.139 135.173 374.243 136.627C375.348 138.022 376.22 139.912 376.86 142.295C377.557 144.621 377.906 147.208 377.906 150.057C377.906 155.29 377.034 159.854 375.29 163.75C373.604 167.587 371.162 170.581 367.964 172.732C364.824 174.826 361.103 175.872 356.801 175.872C349.184 175.872 343.69 173.023 340.318 167.325C334.969 173.256 329.184 176.221 322.962 176.221ZM343.283 139.679C343.283 144.388 343.428 148.255 343.719 151.278C347.731 144.418 350.754 137.47 352.789 130.435C354.882 123.399 355.929 116.684 355.929 110.288C355.929 100.928 353.894 96.2473 349.824 96.2473C347.44 96.2473 345.725 97.8462 344.678 101.044C343.748 103.893 343.283 108.922 343.283 116.132V139.679ZM393.745 176.221C391.71 176.221 389.675 175.901 387.641 175.262C385.606 174.68 383.483 173.721 381.274 172.384C381.158 169.302 382.321 167.035 384.763 165.581C387.96 167.674 390.984 168.721 393.833 168.721C396.275 168.721 398.222 168.081 399.676 166.802C401.129 165.465 401.856 163.779 401.856 161.744C401.856 159.186 400.461 156.802 397.67 154.592L391.042 149.36C388.891 147.673 387.234 145.871 386.071 143.952C381.478 146.801 376.565 148.226 371.332 148.226C370.402 148.226 369.617 147.877 368.977 147.179C368.338 146.482 368.018 145.58 368.018 144.476C368.018 142.092 369.006 140.9 370.983 140.9C373.134 140.9 375.373 140.522 377.698 139.766C379.966 138.952 382.001 137.818 383.803 136.365C383.803 136.191 383.803 135.987 383.803 135.754C383.803 132.847 384.326 130.696 385.373 129.301C386.478 127.905 387.379 127.062 388.077 126.772C389.065 126.539 390.112 126.568 391.216 126.859C392.379 127.091 393.426 127.498 394.356 128.08C395.286 128.661 395.926 129.359 396.275 130.173C395.984 131.917 395.431 133.574 394.618 135.144C393.804 136.656 392.815 138.051 391.652 139.33C392.059 140.086 392.583 140.813 393.222 141.51C393.92 142.208 394.792 142.964 395.838 143.778L402.467 149.185C404.85 151.104 406.624 153.11 407.787 155.203C409.008 157.238 409.618 159.534 409.618 162.093C409.618 164.767 408.949 167.18 407.612 169.331C406.275 171.482 404.414 173.169 402.031 174.39C399.647 175.61 396.885 176.221 393.745 176.221Z" fill="white"/>
</svg>
