<svg width="406" height="158" viewBox="0 0 406 158" fill="none" xmlns="http://www.w3.org/2000/svg">
<path d="M62.1123 106.611V101.521H66.7437V96.8899H71.3242V92.7674H66.7437V88.1869H62.1123V83.0974H67.2526V87.7288H71.8332V92.2584H76.0065V87.7288H80.587V83.0974H85.7783V88.1869H81.096V92.7674H76.5155V96.8899H81.096V101.521H85.7783V106.611H80.587V102.03H76.0065V97.3988H71.8332V102.03H67.2526V106.611H62.1123ZM91.9334 115.568V87.7288H96.5648V83.0974H110.917V87.7288H115.599V102.03H110.917V106.611H97.0737V115.568H91.9334ZM97.0737 101.521H110.408V88.1869H97.0737V101.521ZM126.386 106.611V102.03H121.754V87.7288H126.386V83.0974H140.738V87.7288H145.421V92.7674H140.229V88.1869H126.895V92.2584H136.158V97.3988H126.895V101.521H140.229V96.839H145.421V101.979H140.738V106.611H126.386ZM151.576 106.611V87.7288H156.207V83.0974H170.559V87.7288H175.242V92.7674H170.05V88.1869H156.716V106.611H151.576ZM181.397 106.611V83.0974H186.537V106.611H181.397ZM181.397 79.0258V73.8855H186.537V79.0258H181.397ZM191.685 106.611V83.0974H206.088V87.7288H210.16V83.0974H219.982V87.7288H224.563V106.611H219.473V88.1869H210.669V106.611H205.579V88.1869H196.825V106.611H191.685ZM234.835 106.611V102.03H230.204V87.7288H234.835V83.0974H249.188V87.7288H253.87V92.7674H248.679V88.1869H235.344V92.2584H244.607V97.3988H235.344V101.521H248.679V96.839H253.87V101.979H249.188V106.611H234.835ZM260.025 106.611V83.0974H279.009V87.7288H283.691V106.611H278.5V88.1869H265.165V106.611H260.025ZM297.02 106.611V102.03H292.44V88.1869H287.808V83.0974H292.44V73.8855H297.529V83.0974H311.474V88.1869H297.529V101.521H310.965V96.8899H316.106V102.03H311.474V106.611H297.02ZM332.899 106.713C331.643 105.83 330.812 104.456 330.405 102.59C331.524 101.945 332.661 101.165 333.815 100.249C334.968 99.3328 336.003 98.3658 336.919 97.3479C336.546 95.5157 336.292 93.1406 336.156 90.2227C336.02 87.3047 335.952 83.4537 335.952 78.6696H336.003L335.952 78.6187C335.952 75.5989 335.986 73.0372 336.054 70.9336C336.122 68.8299 336.258 67.0656 336.461 65.6405C336.665 64.2155 336.919 63.011 337.225 62.027C337.564 61.0091 337.988 60.093 338.497 59.2787C339.243 58.0572 340.16 57.175 341.245 56.6322C342.365 56.0893 343.586 55.8178 344.91 55.8178C347.556 55.8178 349.592 56.9884 351.017 59.3296C352.442 61.6707 353.155 64.8941 353.155 68.9996C353.155 71.9515 352.832 74.8864 352.188 77.8043C351.577 80.6884 350.729 83.4367 349.643 86.0493C348.591 88.6619 347.387 91.0539 346.029 93.2254C344.672 95.363 343.264 97.1783 341.805 98.6712C341.839 98.773 341.89 98.8917 341.958 99.0274C342.433 100.147 343.128 100.995 344.045 101.572C344.961 102.115 346.012 102.386 347.2 102.386C347.675 102.386 348.048 102.59 348.32 102.997C348.625 103.37 348.778 103.896 348.778 104.575C348.778 106 348.15 106.713 346.895 106.713C344.961 106.713 343.247 106.288 341.754 105.44C340.295 104.558 339.21 103.472 338.497 102.183C337.784 102.929 336.97 103.676 336.054 104.422C335.172 105.135 334.12 105.898 332.899 106.713ZM340.482 78.924C340.482 82.4188 340.499 85.3198 340.533 87.627C340.601 89.9003 340.685 91.7834 340.787 93.2763C342.246 91.3084 343.57 89.0012 344.757 86.3547C345.945 83.6742 346.878 80.8411 347.556 77.8552C348.269 74.8694 348.625 71.9006 348.625 68.9487C348.625 66.1325 348.303 63.978 347.658 62.4851C347.013 60.9582 346.097 60.1948 344.91 60.1948C343.586 60.1948 342.586 60.9752 341.907 62.5359C341.568 63.3503 341.279 64.3851 341.042 65.6405C340.838 66.862 340.685 68.5246 340.584 70.6282C340.516 72.7318 340.482 75.4971 340.482 78.924ZM347.004 106.713C346.529 106.713 346.156 106.509 345.884 106.102C345.579 105.695 345.426 105.169 345.426 104.524C345.426 103.845 345.596 103.32 345.935 102.946C346.274 102.573 346.716 102.386 347.258 102.386C349.328 102.386 351.211 101.844 352.908 100.758C354.638 99.6382 356.046 98.1113 357.132 96.1773C357.03 95.4648 356.979 94.7183 356.979 93.938C356.979 91.495 357.505 89.3235 358.557 87.4234C359.609 85.5234 361.034 84.0305 362.832 82.9447C364.664 81.825 366.717 81.2652 368.99 81.2652C371.264 81.2652 373.3 81.825 375.098 82.9447C376.896 84.0305 378.304 85.5234 379.322 87.4234C380.374 89.3235 380.9 91.495 380.9 93.938C380.9 96.3809 380.374 98.5694 379.322 100.503C378.304 102.437 376.896 103.964 375.098 105.084C373.333 106.17 371.298 106.713 368.99 106.713C366.819 106.713 364.868 106.221 363.138 105.237C361.407 104.253 360.016 102.912 358.964 101.216C357.539 102.98 355.792 104.337 353.722 105.287C351.686 106.238 349.447 106.713 347.004 106.713ZM368.94 102.336C371.111 102.336 372.841 101.572 374.131 100.045C375.454 98.5185 376.116 96.4827 376.116 93.938C376.116 92.6826 375.929 91.5289 375.556 90.4771C373.52 90.4093 371.671 90.0021 370.008 89.2557C368.38 88.5092 367.09 87.4913 366.14 86.202C364.783 86.7788 363.714 87.7627 362.934 89.1539C362.154 90.5111 361.763 92.1397 361.763 94.0398C361.763 96.5166 362.408 98.5185 363.697 100.045C365.021 101.572 366.768 102.336 368.94 102.336ZM397.206 106.713C395.68 106.713 394.288 106.373 393.033 105.695C391.778 105.016 390.726 104.1 389.878 102.946C388.011 100.368 386.824 95.9568 386.315 89.7137C385.127 90.0191 383.906 90.2735 382.651 90.4771C381.361 90.6468 380.191 90.7316 379.139 90.7316C377.951 90.7316 377.086 90.5789 376.543 90.2735C376 89.9682 375.729 89.3744 375.729 88.4922C375.729 87.8815 375.848 87.4404 376.085 87.169C376.323 86.8636 376.594 86.7109 376.899 86.7109H378.274C379.563 86.7109 380.852 86.6091 382.142 86.4055C383.431 86.168 384.737 85.8627 386.06 85.4894C385.993 83.4537 385.959 81.1634 385.959 78.6187C385.959 75.5989 385.993 73.0372 386.06 70.9336C386.128 68.8299 386.264 67.0656 386.468 65.6405C386.671 64.2155 386.926 63.011 387.231 62.027C387.57 61.0091 387.994 60.093 388.503 59.2787C389.25 58.0572 390.166 57.175 391.252 56.6322C392.371 56.0893 393.593 55.8178 394.916 55.8178C397.563 55.8178 399.598 56.9884 401.024 59.3296C402.449 61.6707 403.161 64.8941 403.161 68.9996C403.161 72.1211 402.618 74.9712 401.532 77.5499C400.481 80.1285 399.022 82.3679 397.156 84.268C395.289 86.1341 393.152 87.5931 390.743 88.6449C391.082 93.2594 391.693 96.6693 392.575 98.8747C393.084 100.096 393.746 100.995 394.56 101.572C395.408 102.115 396.358 102.386 397.41 102.386C398.767 102.386 399.972 102.03 401.024 101.318C402.075 102.166 402.686 103.32 402.856 104.779C401.261 106.068 399.378 106.713 397.206 106.713ZM390.488 78.924C390.488 80.8241 390.505 82.5884 390.539 84.2171C392.88 82.9617 394.814 80.9937 396.341 78.3133C397.868 75.5989 398.631 72.4604 398.631 68.8978C398.631 66.0816 398.292 63.9271 397.614 62.4342C396.969 60.9412 396.07 60.1948 394.916 60.1948C393.593 60.1948 392.592 60.9752 391.913 62.5359C391.574 63.3503 391.286 64.3851 391.048 65.6405C390.845 66.862 390.692 68.5246 390.59 70.6282C390.522 72.7318 390.488 75.4971 390.488 78.924Z" fill="#19191D"/>
<path d="M22.473 119.636C22.3173 119.636 22.1227 119.597 21.8893 119.519C21.6947 119.441 21.4223 119.208 21.0721 118.818C20.3327 118.001 19.7101 116.756 19.2042 115.083C18.6983 113.409 18.3092 111.619 18.0368 109.713C17.8033 107.806 17.6476 106.113 17.5698 104.634V102.942C12.2386 102.358 8.01647 100.665 4.90337 97.8634C1.79026 95.0616 0.194792 91.6761 0.116965 87.7069C0.0391368 83.9322 0.875784 80.3327 2.62691 76.9083C4.37803 73.4839 6.84906 70.4291 10.04 67.7441C13.2309 65.059 16.9667 62.9577 21.2472 61.44C25.5277 59.8835 30.1779 59.1052 35.1978 59.1052H35.548C34.4973 57.6654 33.7385 56.0115 33.2716 54.1437C27.201 52.8206 22.2395 50.7387 18.387 47.898C14.5345 45.0573 11.7717 41.7691 10.0984 38.0334C9.94271 37.761 9.84542 37.4886 9.80651 37.2162C9.7676 36.9048 9.74814 36.6908 9.74814 36.5741C9.74814 36.1071 9.90379 35.8736 10.2151 35.8736C10.6432 35.8736 11.0518 36.3406 11.4409 37.2745C14.9431 45.2519 22.1227 50.3496 32.9797 52.5677C32.9408 52.2953 32.9213 51.8478 32.9213 51.2251C32.8824 46.6722 33.9136 42.5668 36.015 38.9089C38.1552 35.2121 40.9765 32.0406 44.4787 29.3945C48.0199 26.7483 51.8918 24.7248 56.0945 23.3239C60.2972 21.923 64.4221 21.2226 68.4691 21.2226C74.7732 21.2226 79.6763 22.3511 83.1785 24.6081C86.6808 26.8262 88.4319 29.9393 88.4319 33.9474C88.4319 36.9438 87.3423 39.765 85.1632 42.4112C83.0229 45.0184 80.0654 47.3143 76.2908 49.2989C72.5551 51.2446 68.2356 52.7817 63.3325 53.9102C58.4293 54.9998 53.2344 55.5446 47.7475 55.5446C44.2063 55.5446 41.0154 55.35 38.1747 54.9609C38.486 56.4007 39.1281 57.86 40.1009 59.3387C43.9145 59.7278 46.7941 60.4866 48.7398 61.6151C50.7244 62.7436 51.7362 63.9111 51.7751 65.1174C51.7751 66.3626 50.7633 66.9852 48.7398 66.9852C47.0276 66.9852 45.1014 66.4794 42.9611 65.4676C40.8598 64.4169 38.953 62.9966 37.2408 61.2065C33.4272 61.6346 29.672 62.7826 25.9752 64.6504C22.2784 66.4794 18.9318 68.7753 15.9354 71.5382C12.9391 74.2621 10.5459 77.2001 8.75584 80.3521C7.00471 83.5042 6.14861 86.5784 6.18752 89.5747C6.26535 92.6878 7.27711 95.2951 9.2228 97.3964C11.1685 99.4978 13.9897 100.84 17.6866 101.424C17.9979 97.9217 18.8929 94.5168 20.3716 91.2091C21.8893 87.8625 23.8349 84.8662 26.2087 82.22C28.5824 79.5739 31.2286 77.4725 34.1471 75.916C37.1046 74.3205 40.1788 73.5228 43.3697 73.5228C45.7824 73.5228 47.9032 74.3205 49.7321 75.916C51.5611 77.5114 52.4755 79.3988 52.4755 81.5779C52.4755 85.625 51.0941 89.2829 48.3312 92.5516C45.5683 95.8204 41.8326 98.4082 37.124 100.315C32.4544 102.183 27.2205 103.117 21.4223 103.117C21.0332 103.117 20.6635 103.097 20.3132 103.058C20.0019 103.058 19.6712 103.058 19.3209 103.058C19.282 103.331 19.2626 103.603 19.2626 103.876C19.2626 104.187 19.2626 104.498 19.2626 104.809C19.2626 106.249 19.3988 107.864 19.6712 109.654C19.9436 111.483 20.3327 113.176 20.8386 114.733C21.3445 116.289 21.9282 117.456 22.5897 118.235C22.9788 118.663 23.1734 118.955 23.1734 119.11C23.1734 119.461 22.9399 119.636 22.473 119.636ZM46.6968 53.8518C51.0552 53.8518 55.5497 53.3654 60.1805 52.3926C64.8112 51.3808 69.0917 49.941 73.022 48.0731C76.9912 46.1663 80.1822 43.8899 82.5948 41.2437C85.0464 38.5587 86.2722 35.5429 86.2722 32.1963C86.2722 29.5501 84.8713 27.3126 82.0695 25.4836C79.2677 23.6158 75.4347 22.6818 70.5705 22.6818C66.5623 22.6818 62.6126 23.6741 58.7212 25.6588C54.8298 27.6044 51.3276 30.1144 48.2145 33.1886C45.1014 36.2628 42.6109 39.5315 40.743 42.9949C38.8751 46.4193 37.9412 49.6102 37.9412 52.5677V53.3849C39.3032 53.5405 40.7041 53.6573 42.1439 53.7351C43.6226 53.8129 45.1403 53.8518 46.6968 53.8518ZM49.6154 65.6427C50.238 65.6427 50.5493 65.4092 50.5493 64.9423C50.5104 64.2807 49.6154 63.5219 47.8642 62.6658C46.1131 61.7708 43.9534 61.2455 41.3851 61.0898C42.5914 62.4518 43.9339 63.5608 45.4127 64.4169C46.8914 65.2341 48.2923 65.6427 49.6154 65.6427ZM21.7725 101.716C24.8467 101.716 28.0182 100.996 31.2869 99.5561C34.5557 98.0774 37.591 96.2095 40.3928 93.9525C43.1946 91.6566 45.4516 89.2634 47.1638 86.7729C48.9149 84.2824 49.7905 82.0254 49.7905 80.0019C49.7905 78.4065 49.1873 77.1807 47.981 76.3246C46.7747 75.4295 45.2765 74.982 43.4864 74.982C40.2566 74.982 36.8711 76.0911 33.3299 78.3092C29.8277 80.4883 26.7535 83.582 24.1073 87.5901C21.5001 91.5593 19.9241 96.229 19.3793 101.599C19.7685 101.638 20.1576 101.677 20.5467 101.716C20.9748 101.716 21.3834 101.716 21.7725 101.716Z" fill="#19191D"/>
</svg>
