<svg width="600" height="328" viewBox="0 0 600 328" fill="none" xmlns="http://www.w3.org/2000/svg">
<g filter="url(#filter0_d_242_2)">
<path d="M154.628 197.76C149.623 197.76 143.993 197.208 137.737 196.104C131.481 195 125.225 193.675 118.969 192.13C112.787 190.511 107.231 189.002 102.299 187.603C90.8182 192.682 78.0858 195.221 64.1022 195.221C55.7857 195.221 49.6402 194.264 45.666 192.35C41.7653 190.437 39.8149 188.376 39.8149 186.168C39.8149 182.709 42.0965 179.986 46.6595 177.999C51.2226 175.938 57.184 174.908 64.5438 174.908C70.0636 174.908 75.6939 175.57 81.4345 176.895C87.2487 178.22 93.6517 180.133 100.644 182.636C106.311 178.956 112.198 173.804 118.307 167.18C124.416 160.483 131.334 151.872 139.062 141.347C123.827 140.832 111.573 137.52 102.299 131.412C93.0261 125.229 88.3895 117.354 88.3895 107.787C88.3895 101.457 90.4134 95.3118 94.4613 89.3504C98.5828 83.3153 103.919 78.3475 110.469 74.4468C117.093 70.5461 124.195 68.5958 131.775 68.5958C133.027 68.5958 133.726 68.7798 133.873 69.1478C134.094 69.4422 134.204 69.6997 134.204 69.9205C134.204 70.2885 134.057 70.5829 133.763 70.8037C133.468 70.9509 132.438 71.0981 130.671 71.2453C123.091 71.9813 116.761 74.1524 111.683 77.7587C106.679 81.2914 102.925 85.5233 100.423 90.4543C97.9204 95.3854 96.6692 100.28 96.6692 105.137C96.6692 116.471 100.717 124.788 108.813 130.087C116.909 135.312 127.764 137.999 141.38 138.146C143.735 134.907 146.127 131.485 148.556 127.879C151.058 124.273 153.671 120.445 156.394 116.398C168.685 98.0717 180.166 83.3521 190.838 72.2389C201.583 61.052 212.034 52.9562 222.19 47.9516C232.347 42.8733 242.687 40.3342 253.212 40.3342C258.658 40.3342 263.074 41.5486 266.459 43.9773C269.845 46.406 271.538 49.6443 271.538 53.6922C271.538 59.8744 269.146 66.5718 264.362 73.7844C259.652 80.997 253.249 88.1728 245.153 95.3118C237.131 102.451 228.078 109.148 217.995 115.404C207.912 121.66 197.498 126.996 186.753 131.412C176.008 135.754 165.63 138.698 155.621 140.243C147.599 150.989 139.65 160.078 131.775 167.511C123.9 174.871 115.768 180.759 107.378 185.175C113.707 187.456 120.773 189.223 128.574 190.474C136.449 191.725 145.391 192.35 155.4 192.35C163.643 192.35 170.267 191.578 175.272 190.032C180.276 188.413 184.03 186.683 186.532 184.844C189.108 183.004 190.764 181.716 191.5 180.98C192.604 179.876 193.34 179.728 193.708 180.538C193.929 181.053 193.818 181.716 193.377 182.525C193.009 183.261 192.53 183.924 191.942 184.512C185.98 189.885 179.872 193.418 173.616 195.11C167.36 196.877 161.031 197.76 154.628 197.76ZM158.271 136.711C167.986 135.018 177.848 132 187.857 127.658C197.866 123.316 207.397 118.127 216.45 112.092C225.576 106.057 233.708 99.6173 240.847 92.7727C248.06 85.9281 253.727 79.0835 257.848 72.2389C262.043 65.3943 264.141 58.9913 264.141 53.0298C264.141 50.4539 263.037 48.1356 260.829 46.0749C258.621 43.9405 255.861 42.8733 252.549 42.8733C240.7 42.8733 228.998 47.6572 217.443 57.2249C205.962 66.719 194.812 80.261 183.993 97.8509C179.504 105.211 175.124 112.129 170.856 118.605C166.587 125.082 162.392 131.117 158.271 136.711ZM62.5567 192.571C68.8861 192.571 74.7003 192.093 79.9993 191.136C85.2984 190.179 90.5238 188.339 95.6757 185.616C90.7446 184.218 85.556 183.04 80.1097 182.084C74.7371 181.053 69.8428 180.538 65.427 180.538C50.413 180.538 42.906 182.378 42.906 186.058C42.906 187.235 44.6356 188.634 48.0947 190.253C51.6274 191.798 56.448 192.571 62.5567 192.571Z" fill="#D17E9D"/>
</g>
<g filter="url(#filter1_d_242_2)">
<path d="M209.832 196.164V187.434H201.005V160.177H209.832V151.35H237.186V160.177H246.11V169.78H236.216V161.05H210.802V168.81H228.456V178.607H210.802V186.464H236.216V177.54H246.11V187.337H237.186V196.164H209.832ZM266.668 196.164V187.434H257.841V160.177H266.668V151.35H294.022V160.177H302.946V186.464H311.773V196.164H301.976V187.434H294.022V196.164H266.668ZM267.638 186.464H293.052V161.05H267.638V186.464ZM323.487 196.164V160.177H332.314V151.35H359.668V160.177H368.592V169.78H358.698V161.05H333.284V196.164H323.487ZM377.386 196.164V151.35H413.567V160.177H422.491V196.164H412.597V161.05H387.183V196.164H377.386ZM434.222 196.164V151.35H444.019V196.164H434.222ZM434.222 143.59V133.793H444.019V143.59H434.222ZM453.83 196.164V151.35H490.011V160.177H498.935V196.164H489.041V161.05H463.627V196.164H453.83ZM517.599 213.721V204.991H508.772V195.291H518.569V204.021H544.08V187.434H517.599V178.607H508.772V160.177H517.599V151.35H545.05V160.177H553.877V204.991H545.05V213.721H517.599ZM518.569 177.637H544.08V161.05H518.569V177.637Z" fill="#C6CC88"/>
</g>
<g filter="url(#filter2_d_242_2)">
<path d="M225.621 287.756C222.506 287.756 219.711 287.023 217.238 285.557C214.81 284.045 212.886 281.984 211.466 279.373C210.092 276.762 209.405 273.807 209.405 270.509C209.405 267.211 210.115 264.279 211.535 261.714C212.955 259.149 214.879 257.133 217.307 255.668C219.78 254.156 222.552 253.4 225.621 253.4C228.69 253.4 231.438 254.156 233.866 255.668C236.294 257.133 238.195 259.149 239.569 261.714C240.989 264.279 241.699 267.211 241.699 270.509C241.699 273.807 240.989 276.762 239.569 279.373C238.195 281.984 236.294 284.045 233.866 285.557C231.484 287.023 228.735 287.756 225.621 287.756ZM225.552 281.846C228.484 281.846 230.82 280.816 232.56 278.754C234.347 276.693 235.24 273.945 235.24 270.509C235.24 268.814 234.988 267.257 234.484 265.837C231.736 265.745 229.239 265.196 226.995 264.188C224.796 263.18 223.055 261.806 221.773 260.065C219.941 260.844 218.498 262.172 217.444 264.05C216.39 265.883 215.864 268.081 215.864 270.647C215.864 273.99 216.734 276.693 218.475 278.754C220.261 280.816 222.62 281.846 225.552 281.846ZM264.218 287.756C259.774 287.756 256.362 286.267 253.98 283.289C251.644 280.312 250.476 275.983 250.476 270.303V262.401C249.056 263.18 247.429 263.798 245.597 264.256C243.811 264.715 241.91 264.944 239.894 264.944C237.65 264.944 235.703 264.646 234.054 264.05C232.817 263.638 232.199 262.836 232.199 261.645C232.199 260.775 232.451 260.042 232.954 259.447C233.412 258.851 233.962 258.553 234.603 258.553C234.787 258.553 234.947 258.576 235.084 258.622C235.222 258.622 235.359 258.645 235.497 258.691C236.275 258.874 237.054 259.034 237.833 259.172C238.612 259.263 239.413 259.309 240.238 259.309C242.574 259.309 244.796 258.783 246.903 257.729C249.056 256.63 250.544 255.301 251.369 253.744C252.331 253.652 253.316 253.767 254.323 254.087C255.331 254.408 256.133 254.958 256.728 255.736V270.234C256.728 274.22 257.37 277.128 258.652 278.961C259.935 280.747 261.95 281.64 264.699 281.64C271.249 281.64 274.524 276.853 274.524 267.28V254.362C274.891 254.225 275.349 254.11 275.899 254.019C276.448 253.927 277.021 253.881 277.616 253.881C278.716 253.881 279.769 254.041 280.777 254.362V274.151C280.777 276.579 281.144 278.48 281.876 279.854C282.655 281.182 283.938 281.846 285.724 281.846C286.503 281.846 287.03 282.167 287.305 282.808C287.579 283.45 287.717 284.137 287.717 284.87C287.717 285.603 287.511 286.267 287.098 286.862C286.732 287.458 286.114 287.756 285.243 287.756C280.846 287.756 277.868 285.832 276.311 281.984C275.028 283.862 273.379 285.305 271.364 286.313C269.348 287.275 266.966 287.756 264.218 287.756ZM285.226 287.756C284.631 287.756 284.15 287.481 283.783 286.931C283.417 286.381 283.233 285.671 283.233 284.801C283.233 282.831 284.058 281.846 285.707 281.846C287.723 281.846 289.509 281.022 291.066 279.373C292.67 277.678 293.929 275.388 294.846 272.502C295.808 269.616 296.289 266.409 296.289 262.882C296.289 262.058 296.243 261.302 296.151 260.615C296.059 259.928 295.945 259.355 295.808 258.897C295.395 258.485 294.937 257.821 294.433 256.904C293.975 255.988 293.563 255.026 293.197 254.019C292.876 252.965 292.716 252.118 292.716 251.476C293.265 250.606 294.136 249.942 295.327 249.484C296.563 248.98 297.915 248.842 299.38 249.071C300.251 250.675 300.961 252.69 301.511 255.118C302.885 255.072 304.74 254.774 307.076 254.225C308.542 253.904 309.71 253.698 310.58 253.606C311.496 253.469 312.275 253.4 312.917 253.4C315.39 253.4 317.337 254.339 318.757 256.217C320.177 258.05 320.887 260.546 320.887 263.707V274.769C320.887 277.289 321.208 279.098 321.849 280.197C322.536 281.297 323.612 281.846 325.078 281.846C325.72 281.846 326.201 282.121 326.521 282.671C326.888 283.221 327.071 283.954 327.071 284.87C327.071 285.603 326.865 286.267 326.453 286.862C326.086 287.458 325.468 287.756 324.597 287.756C317.955 287.756 314.634 283.679 314.634 275.525V264.875C314.634 262.814 314.405 261.371 313.947 260.546C313.489 259.722 312.665 259.309 311.474 259.309C311.061 259.309 310.603 259.355 310.099 259.447C309.595 259.538 308.702 259.722 307.42 259.996C305.175 260.454 303.48 260.729 302.335 260.821C302.381 261.554 302.404 262.287 302.404 263.02C302.404 267.967 301.694 272.296 300.274 276.006C298.854 279.716 296.838 282.602 294.227 284.664C291.662 286.725 288.662 287.756 285.226 287.756ZM324.614 287.756C324.018 287.756 323.538 287.481 323.171 286.931C322.805 286.381 322.621 285.671 322.621 284.801C322.621 282.831 323.446 281.846 325.095 281.846C326.561 281.846 327.866 281.113 329.011 279.648C330.202 278.136 331.233 275.64 332.103 272.158L334.165 264.119C336.089 256.973 339.753 253.4 345.158 253.4C347.22 253.4 348.96 254.019 350.38 255.255C351.801 256.446 352.785 258.072 353.335 260.134C354.618 257.981 356.267 256.332 358.282 255.187C360.298 253.996 362.542 253.4 365.016 253.4C368.589 253.4 371.337 254.568 373.261 256.904C375.231 259.241 376.216 262.516 376.216 266.73V274.769C376.216 277.289 376.536 279.098 377.178 280.197C377.865 281.297 378.941 281.846 380.407 281.846C381.048 281.846 381.529 282.121 381.85 282.671C382.216 283.221 382.4 283.954 382.4 284.87C382.4 285.603 382.194 286.267 381.781 286.862C381.415 287.458 380.796 287.756 379.926 287.756C373.284 287.756 369.963 283.679 369.963 275.525V266.73C369.963 261.783 368.016 259.309 364.123 259.309C362.107 259.309 360.321 260.111 358.763 261.714C357.252 263.317 356.061 265.539 355.19 268.379C354.366 271.219 353.953 274.517 353.953 278.273V286.794C353.495 286.931 352.992 287.046 352.442 287.137C351.892 287.229 351.365 287.275 350.861 287.275C349.762 287.275 348.731 287.114 347.769 286.794V264.875C347.769 263.088 347.54 261.714 347.082 260.752C346.624 259.79 345.8 259.309 344.609 259.309C343.647 259.309 342.822 259.744 342.135 260.615C341.448 261.485 340.853 262.882 340.349 264.806L337.806 274.7C336.615 279.235 334.966 282.556 332.859 284.664C330.752 286.725 328.004 287.756 324.614 287.756ZM380.386 281.846C381.943 281.846 383.455 281.091 384.921 279.579C386.432 278.022 387.692 275.937 388.7 273.326C388.654 272.685 388.631 272.044 388.631 271.402C388.631 267.921 389.318 264.829 390.692 262.126C392.066 259.424 393.922 257.294 396.258 255.736C398.64 254.179 401.342 253.4 404.366 253.4C405.969 253.4 407.549 253.721 409.107 254.362C410.664 254.958 411.97 255.782 413.023 256.836V254.019C413.435 253.881 413.916 253.767 414.466 253.675C415.016 253.583 415.588 253.538 416.184 253.538C417.283 253.538 418.314 253.698 419.276 254.019V274.151C419.276 276.579 419.642 278.48 420.375 279.854C421.154 281.182 422.437 281.846 424.223 281.846C425.002 281.846 425.529 282.167 425.803 282.808C426.078 283.45 426.216 284.137 426.216 284.87C426.216 285.603 426.01 286.267 425.597 286.862C425.231 287.458 424.612 287.756 423.742 287.756C419.253 287.756 416.253 285.74 414.741 281.709C413.413 283.587 411.741 285.076 409.725 286.175C407.755 287.229 405.557 287.756 403.129 287.756C400.472 287.756 398.113 287.183 396.052 286.038C394.036 284.847 392.387 283.221 391.104 281.159C388.264 285.557 384.531 287.756 379.905 287.756C379.309 287.756 378.828 287.481 378.462 286.931C378.095 286.381 377.912 285.671 377.912 284.801C377.912 282.831 378.737 281.846 380.386 281.846ZM395.021 271.402C395.021 274.655 395.754 277.22 397.22 279.098C398.731 280.93 400.793 281.846 403.404 281.846C406.29 281.846 408.603 280.862 410.343 278.892C412.13 276.922 413.023 274.334 413.023 271.128V263.432C412.107 262.195 410.939 261.21 409.519 260.477C408.099 259.699 406.633 259.309 405.121 259.309C403.152 259.309 401.411 259.836 399.899 260.89C398.388 261.943 397.197 263.386 396.326 265.218C395.456 267.005 395.021 269.066 395.021 271.402ZM423.721 287.756C423.126 287.756 422.645 287.481 422.278 286.931C421.912 286.381 421.729 285.671 421.729 284.801C421.729 283.885 421.958 283.175 422.416 282.671C422.828 282.121 423.4 281.846 424.133 281.846C425.691 281.846 427.386 281.251 429.218 280.06C431.05 278.869 432.791 277.243 434.44 275.181C433.707 272.296 433.18 268.791 432.86 264.669C432.539 260.5 432.379 255.553 432.379 249.827C432.379 245.75 432.425 242.292 432.516 239.452C432.608 236.612 432.791 234.23 433.066 232.306C433.341 230.382 433.684 228.756 434.096 227.428C434.555 226.053 435.127 224.817 435.814 223.717C436.822 222.068 438.059 220.877 439.525 220.144C441.036 219.411 442.685 219.045 444.472 219.045C448.045 219.045 450.793 220.625 452.717 223.786C454.641 226.947 455.603 231.298 455.603 236.841C455.603 243.345 454.343 250.033 451.824 256.904C449.35 263.775 445.777 270.349 441.105 276.624C441.151 276.808 441.219 276.991 441.311 277.174C441.998 278.823 442.891 280.037 443.991 280.816C445.136 281.549 446.419 281.915 447.839 281.915C449.671 281.915 451.297 281.434 452.717 280.472C454.137 281.617 454.962 283.175 455.191 285.145C453.038 286.885 450.495 287.756 447.564 287.756C445.502 287.756 443.624 287.297 441.929 286.381C440.235 285.465 438.815 284.228 437.669 282.671C437.395 282.259 437.12 281.846 436.845 281.434C432.814 285.648 428.439 287.756 423.721 287.756ZM438.494 250.239C438.494 258.118 438.792 264.394 439.387 269.066C442.731 263.432 445.251 257.912 446.945 252.507C448.64 247.102 449.488 241.857 449.488 236.772C449.488 232.97 449.052 230.061 448.182 228.046C447.312 225.985 446.075 224.954 444.472 224.954C442.685 224.954 441.334 226.007 440.418 228.115C439.96 229.214 439.57 230.611 439.25 232.306C438.975 233.955 438.769 236.2 438.631 239.04C438.54 241.88 438.494 245.613 438.494 250.239Z" fill="#F2C1D1"/>
</g>
<g filter="url(#filter3_d_242_2)">
<path d="M168.036 285.227C159.723 285.227 153.6 283.767 149.668 280.846C145.792 277.869 143.854 273.319 143.854 267.196C143.854 265.735 144.022 264.247 144.359 262.73H157.841C157.729 263.46 157.644 264.162 157.588 264.836C157.532 265.51 157.504 266.072 157.504 266.522C157.504 269.611 158.655 271.69 160.959 272.757C163.262 273.768 166.379 274.273 170.311 274.273H175.62C180.395 274.273 183.765 273.515 185.731 271.998C187.753 270.426 188.764 267.505 188.764 263.235V224.56H202.246V263.235C202.246 268.179 201.488 272.279 199.971 275.537C198.454 278.795 195.927 281.239 192.388 282.868C188.849 284.441 184.018 285.227 177.895 285.227H168.036Z" fill="#ACCCDB"/>
</g>
<defs>
<filter id="filter0_d_242_2" x="39.8149" y="39.4342" width="233.623" height="159.226" filterUnits="userSpaceOnUse" color-interpolation-filters="sRGB">
<feFlood flood-opacity="0" result="BackgroundImageFix"/>
<feColorMatrix in="SourceAlpha" type="matrix" values="0 0 0 0 0 0 0 0 0 0 0 0 0 0 0 0 0 0 127 0" result="hardAlpha"/>
<feOffset dx="1"/>
<feGaussianBlur stdDeviation="0.45"/>
<feComposite in2="hardAlpha" operator="out"/>
<feColorMatrix type="matrix" values="0 0 0 0 0.598426 0 0 0 0 0.598426 0 0 0 0 0.598426 0 0 0 0.25 0"/>
<feBlend mode="normal" in2="BackgroundImageFix" result="effect1_dropShadow_242_2"/>
<feBlend mode="normal" in="SourceGraphic" in2="effect1_dropShadow_242_2" result="shape"/>
</filter>
<filter id="filter1_d_242_2" x="201.005" y="132.893" width="354.772" height="81.728" filterUnits="userSpaceOnUse" color-interpolation-filters="sRGB">
<feFlood flood-opacity="0" result="BackgroundImageFix"/>
<feColorMatrix in="SourceAlpha" type="matrix" values="0 0 0 0 0 0 0 0 0 0 0 0 0 0 0 0 0 0 127 0" result="hardAlpha"/>
<feOffset dx="1"/>
<feGaussianBlur stdDeviation="0.45"/>
<feComposite in2="hardAlpha" operator="out"/>
<feColorMatrix type="matrix" values="0 0 0 0 0.598426 0 0 0 0 0.598426 0 0 0 0 0.598426 0 0 0 0.25 0"/>
<feBlend mode="normal" in2="BackgroundImageFix" result="effect1_dropShadow_242_2"/>
<feBlend mode="normal" in="SourceGraphic" in2="effect1_dropShadow_242_2" result="shape"/>
</filter>
<filter id="filter2_d_242_2" x="209.405" y="218.145" width="248.098" height="70.5107" filterUnits="userSpaceOnUse" color-interpolation-filters="sRGB">
<feFlood flood-opacity="0" result="BackgroundImageFix"/>
<feColorMatrix in="SourceAlpha" type="matrix" values="0 0 0 0 0 0 0 0 0 0 0 0 0 0 0 0 0 0 127 0" result="hardAlpha"/>
<feOffset dx="1"/>
<feGaussianBlur stdDeviation="0.45"/>
<feComposite in2="hardAlpha" operator="out"/>
<feColorMatrix type="matrix" values="0 0 0 0 0.598426 0 0 0 0 0.598426 0 0 0 0 0.598426 0 0 0 0.25 0"/>
<feBlend mode="normal" in2="BackgroundImageFix" result="effect1_dropShadow_242_2"/>
<feBlend mode="normal" in="SourceGraphic" in2="effect1_dropShadow_242_2" result="shape"/>
</filter>
<filter id="filter3_d_242_2" x="143.854" y="223.66" width="60.2926" height="62.4674" filterUnits="userSpaceOnUse" color-interpolation-filters="sRGB">
<feFlood flood-opacity="0" result="BackgroundImageFix"/>
<feColorMatrix in="SourceAlpha" type="matrix" values="0 0 0 0 0 0 0 0 0 0 0 0 0 0 0 0 0 0 127 0" result="hardAlpha"/>
<feOffset dx="1"/>
<feGaussianBlur stdDeviation="0.45"/>
<feComposite in2="hardAlpha" operator="out"/>
<feColorMatrix type="matrix" values="0 0 0 0 0.598426 0 0 0 0 0.598426 0 0 0 0 0.598426 0 0 0 0.25 0"/>
<feBlend mode="normal" in2="BackgroundImageFix" result="effect1_dropShadow_242_2"/>
<feBlend mode="normal" in="SourceGraphic" in2="effect1_dropShadow_242_2" result="shape"/>
</filter>
</defs>
</svg>
