<svg width="163" height="167" viewBox="0 0 163 167" fill="none" xmlns="http://www.w3.org/2000/svg">
<circle cx="72.0005" cy="48.9995" r="4.41177" stroke="#ACCCDB" stroke-width="2.82353"/>
<path d="M124.202 35.97C122.504 35.1103 115.69 29.4498 112.315 23.8107C107.81 16.2849 109.638 7.67426 110.91 5.77885C112.225 3.82097 115.096 3.27873 117.621 3.17245C121.342 3.01581 124.384 8.38798 126.758 12.8353C131.087 20.9458 128.603 32.0133 128.313 33.4581C126.831 40.8314 130.967 16.0835 137.831 8.77686C139.245 7.27231 142.809 6.07014 146.12 7.32892C148.261 8.14295 149.877 8.93906 151.157 10.5567C152.476 12.224 153.096 16.1686 153.449 20.935C153.937 27.5209 147.125 35.102 137.609 36.9816C134.332 37.6291 130.144 38.6444 126.999 39.0788C124.43 39.4336 138.33 36.5908 144.496 36.8289C148.184 36.9714 151.238 40.7408 153.793 44.3088C155.213 46.2912 155.603 48.8302 155.241 50.7724C154.774 53.2799 154.149 54.66 152.853 55.5486C149.038 58.1652 146.072 58.8691 139.744 57.69C134.822 56.7728 131.925 51.566 127.898 45.0261C127.009 43.5836 126.476 42.468 125.708 41.7974C124.941 41.1269 123.995 40.911 122.659 41.7072C119.222 43.7562 113.716 52.9684 107.076 64.078C103.599 69.8954 102.858 73.6146 101.7 81.2317C98.5252 102.111 103.741 119.575 105.109 123.131" stroke="#C6CC88" stroke-width="6" stroke-linecap="round"/>
<path d="M49.5899 91.176C49.8422 88.2256 54.1578 88.2256 54.4101 91.176L55.5784 104.833C55.7218 106.51 57.4912 107.532 59.015 106.818L71.4268 101.001C74.1081 99.744 76.2658 103.481 73.8369 105.175L62.5934 113.015C61.2129 113.978 61.2129 116.021 62.5934 116.984L73.8369 124.824C76.2658 126.518 74.1081 130.255 71.4268 128.999L59.015 123.182C57.4912 122.468 55.7218 123.489 55.5784 125.166L54.4101 138.823C54.1578 141.774 49.8422 141.774 49.5899 138.823L48.4216 125.166C48.2782 123.489 46.5088 122.468 44.985 123.182L32.5732 128.999C29.8919 130.255 27.7342 126.518 30.1631 124.824L41.4066 116.984C42.7871 116.021 42.7871 113.978 41.4066 113.015L30.1631 105.175C27.7342 103.481 29.8919 99.744 32.5732 101.001L44.985 106.818C46.5088 107.532 48.2782 106.51 48.4216 104.833L49.5899 91.176Z" fill="#D17E9D"/>
</svg>
