<svg width="46" height="53" viewBox="0 0 46 53" fill="none" xmlns="http://www.w3.org/2000/svg">
<path d="M20.4844 2.21276C20.7368 -0.737619 25.0523 -0.737612 25.3047 2.21277L26.4729 15.8701C26.6163 17.547 28.3857 18.5685 29.9096 17.8543L42.3213 12.0373C45.0026 10.7807 47.1604 14.5181 44.7315 16.2118L33.4879 24.0522C32.1075 25.0148 32.1075 27.0579 33.4879 28.0205L44.7315 35.8609C47.1604 37.5547 45.0026 41.2921 42.3213 40.0354L29.9096 34.2184C28.3857 33.5042 26.6163 34.5258 26.4729 36.2026L25.3047 49.86C25.0523 52.8104 20.7368 52.8104 20.4844 49.86L19.3162 36.2026C19.1727 34.5258 17.4034 33.5042 15.8795 34.2184L3.46775 40.0354C0.786459 41.2921 -1.37131 37.5547 1.05761 35.8609L12.3011 28.0205C13.6816 27.0579 13.6816 25.0148 12.3011 24.0522L1.05761 16.2118C-1.37131 14.5181 0.786465 10.7807 3.46775 12.0373L15.8795 17.8543C17.4034 18.5685 19.1727 17.547 19.3162 15.8701L20.4844 2.21276Z" fill="#C6CC88"/>
</svg>
