<svg width="71" height="77" viewBox="0 0 71 77" fill="none" xmlns="http://www.w3.org/2000/svg">
<circle cx="64.9995" cy="6" r="4.41177" stroke="#ACCCDB" stroke-width="2.82353"/>
<path d="M19.726 19.2276C19.1999 19.9269 15.8504 22.6059 11.5589 23.8077C9.06111 24.5072 6.79206 23.3322 5.43037 22.2611C4.12172 21.2317 3.55906 19.5971 3.19438 17.5043C2.65419 14.4043 3.3222 11.5929 4.18889 9.94887C5.76996 6.94983 10.926 4.93645 16.4933 3.62865C25.5317 1.50544 29.5091 5.26036 32.2157 7.48161C35.0057 9.77142 36.325 15.8154 36.9991 28.8483C37.2795 34.2693 34.3538 40.2422 33.4868 59.433C33.2758 64.1046 34.4326 65.5835 35.4576 66.838C37.8691 69.7896 44.7203 72.5005 49.4204 73.8053C51.6648 74.4284 53.8842 73.4499 55.6392 72.3691C57.8034 71.0363 59.5763 68.6382 61.002 66.4035C62.0673 64.7338 62.1102 62.5934 61.8993 60.5163C60.9826 59.039 59.2926 57.9872 57.3397 57.2125C56.4221 56.8923 55.6537 56.7203 53.1293 56.531" stroke="#9BA641" stroke-width="6" stroke-linecap="round"/>
</svg>
