<svg width="94" height="176" viewBox="0 0 94 176" fill="none" xmlns="http://www.w3.org/2000/svg">
<circle cx="64.9995" cy="105" r="4.41177" stroke="#ACCCDB" stroke-width="2.82353"/>
<path d="M40.1062 17.4415C40.8265 13.6211 45.9658 12.8599 47.7626 16.3074L54.1347 28.5341C54.9279 30.0562 56.5861 30.9221 58.2885 30.7034L71.9635 28.9459C75.8195 28.4504 78.1316 33.103 75.408 35.8771L65.7488 45.7156C64.5463 46.9403 64.2352 48.785 64.9693 50.3365L70.8665 62.7991C72.5294 66.3132 68.819 69.9499 65.339 68.2168L52.9972 62.0707C51.4608 61.3055 49.6103 61.5796 48.3616 62.7573L38.3313 72.217C35.503 74.8844 30.8978 72.4794 31.4706 68.6342L33.5021 54.9972C33.755 53.2995 32.9225 51.6243 31.4167 50.8006L19.3204 44.1845C15.9095 42.3189 16.7737 37.1958 20.6078 36.5524L34.2051 34.2704C35.8978 33.9864 37.2338 32.6769 37.5518 30.9902L40.1062 17.4415Z" fill="#F2C1D1"/>
<path d="M19.726 118.228C19.1999 118.927 15.8504 121.606 11.5589 122.808C9.06111 123.507 6.79206 122.332 5.43037 121.261C4.12172 120.232 3.55906 118.597 3.19438 116.504C2.65419 113.404 3.3222 110.593 4.18889 108.949C5.76996 105.95 10.926 103.936 16.4933 102.629C25.5317 100.505 29.5091 104.26 32.2157 106.482C35.0057 108.771 36.325 114.815 36.9991 127.848C37.2795 133.269 34.3538 139.242 33.4868 158.433C33.2758 163.105 34.4326 164.584 35.4576 165.838C37.8691 168.79 44.7203 171.5 49.4204 172.805C51.6648 173.428 53.8842 172.45 55.6392 171.369C57.8034 170.036 59.5763 167.638 61.002 165.403C62.0673 163.734 62.1102 161.593 61.8993 159.516C60.9826 158.039 59.2926 156.987 57.3397 156.213C56.4221 155.892 55.6537 155.72 53.1293 155.531" stroke="#9BA641" stroke-width="6" stroke-linecap="round"/>
</svg>
