<svg width="60" height="60" viewBox="0 0 60 60" fill="none" xmlns="http://www.w3.org/2000/svg">
<path d="M22.9182 3.33842C23.6385 -0.481965 28.7778 -1.24317 30.5746 2.20441L36.9467 14.4311C37.7399 15.9531 39.3981 16.8191 41.1005 16.6003L54.7755 14.8429C58.6315 14.3473 60.9436 18.9999 58.22 21.7741L48.5608 31.6125C47.3584 32.8373 47.0472 34.682 47.7813 36.2334L53.6786 48.6961C55.3414 52.2102 51.631 55.8468 48.151 54.1138L35.8092 47.9676C34.2728 47.2025 32.4223 47.4766 31.1736 48.6542L21.1433 58.114C18.315 60.7814 13.7098 58.3764 14.2826 54.5311L16.3142 40.8941C16.5671 39.1965 15.7345 37.5212 14.2287 36.6976L2.13238 30.0814C-1.27845 28.2159 -0.414255 23.0928 3.41982 22.4494L17.0171 20.1674C18.7098 19.8833 20.0458 18.5739 20.3638 16.8872L22.9182 3.33842Z" fill="#F2C1D1"/>
</svg>
