<svg width="237" height="130" viewBox="0 0 237 130" fill="none" xmlns="http://www.w3.org/2000/svg">
<path d="M154.875 116.272C155.397 110.33 168.518 98.3723 165.642 83.7591C164.108 75.9675 163.942 67.1514 164.142 60.2136C164.653 42.4544 167.428 38.5526 172.375 33.7718M171.375 38.2718C162.838 24.095 162.449 22.0606 159.938 18.4844C154.875 11.2718 150.893 8.32275 141.547 5.86134C138.617 5.08966 130.699 4.87933 128.81 5.33094C124.875 6.2719 122.875 11.575 122.875 14.2721C122.875 18.8399 121.989 20.8652 129.174 29.7643C137.851 40.5117 148.795 38.9273 154.875 39.2718C158.769 39.4924 169.537 37.8814 170.738 37.1328" stroke="#ACCCDB" stroke-width="6" stroke-linecap="round"/>
<path d="M166.171 38.1078C178.609 29.3022 183.536 26.4799 187.732 25.2587C201.038 21.3857 201.944 18.6581 211.375 20.7721C214.332 21.4348 220.241 25.3159 221.421 27.8996C223.875 33.2723 223.193 35.592 222.375 37.7723C220.875 41.7723 220.332 44.8305 209.858 49.4268C197.21 54.9778 186.244 49.7649 180.741 47.1594C176.754 45.2717 170.97 38.1078 169.564 36.8487C168.936 36.2861 177.203 43.7941 181.031 52.7578C184.141 60.0398 186.14 70.4995 192.156 80.5044C198.412 90.9069 210.66 102.772 212.366 104.119C214.072 105.467 216.875 106.772 216.875 106.772" stroke="#ACCCDB" stroke-width="6" stroke-linecap="round"/>
<circle cx="95" cy="87.9998" r="7.41177" stroke="#9BA641" stroke-width="2.82353"/>
<path d="M33.1387 17.3761C33.8106 14.9925 37.1894 14.9925 37.8613 17.3761L42.9339 35.3702C43.1656 36.1919 43.8078 36.8342 44.6296 37.0658L62.6237 42.1384C65.0072 42.8104 65.0073 46.1891 62.6237 46.8611L44.6296 51.9337C43.8078 52.1653 43.1656 52.8076 42.9339 53.6293L37.8613 71.6234C37.1894 74.007 33.8106 74.007 33.1387 71.6234L28.0661 53.6293C27.8344 52.8076 27.1922 52.1653 26.3704 51.9337L8.37634 46.8611C5.99275 46.1891 5.99275 42.8104 8.37633 42.1384L26.3704 37.0658C27.1922 36.8342 27.8344 36.1919 28.0661 35.3702L33.1387 17.3761Z" fill="#D17E9D"/>
</svg>
