<svg width="412" height="328" viewBox="0 0 412 328" fill="none" xmlns="http://www.w3.org/2000/svg">
<g filter="url(#filter0_d_200_1848)">
<path d="M25.651 195.221C17.6288 195.221 11.373 193.749 6.88357 190.805C2.4677 187.861 0.259766 184.292 0.259766 180.096C0.259766 176.858 1.40053 174.54 3.68206 173.141C5.9636 171.669 8.24513 170.934 10.5267 170.934C11.7778 170.934 12.9922 171.338 14.1697 172.148C15.4209 172.957 16.0465 174.245 16.0465 176.012C16.0465 177.41 15.4209 178.698 14.1697 179.876C12.9186 180.98 11.4466 181.532 9.75388 181.532C7.54595 181.532 5.8532 181.164 4.67563 180.428V180.98C4.67563 184.218 6.51558 186.978 10.1955 189.259C13.949 191.467 18.512 192.571 23.8847 192.571C31.7596 192.571 38.8618 190.621 45.1912 186.72C51.5206 182.746 57.3717 177.521 62.7443 171.044C68.1169 164.567 73.1952 157.392 77.979 149.517C82.8365 141.642 87.6572 133.73 92.441 125.781L94.6489 122.138C83.0205 121.697 72.6064 119.967 63.4067 116.95C54.2805 113.858 47.1416 109.663 41.9897 104.364C36.9115 99.0653 34.5931 92.9199 35.0347 85.9281C35.4027 79.3779 37.7578 73.3428 42.1001 67.823C46.4424 62.2296 52.2198 57.4089 59.4324 53.361C66.7186 49.2396 74.9247 46.0381 84.0509 43.7565C93.2506 41.475 102.892 40.3342 112.975 40.3342C118.421 40.3342 123.168 40.8494 127.216 41.8798C131.337 42.9101 133.398 43.9405 133.398 44.9709C133.398 45.2653 132.957 45.4125 132.073 45.4125C131.558 45.4125 131.043 45.3757 130.528 45.3021C130.086 45.1549 129.571 45.0445 128.982 44.9709C126.627 44.3821 124.198 43.9037 121.696 43.5357C119.267 43.0941 116.323 42.8733 112.864 42.8733C104.327 42.8733 95.9369 43.9773 87.694 46.1853C79.5246 48.3196 72.0544 51.3739 65.2834 55.3482C58.586 59.3225 53.1766 64.0695 49.0551 69.5894C45.0072 75.1092 42.7993 81.2546 42.4313 88.0256C42.1369 92.4415 43.8665 97.0045 47.6199 101.715C51.447 106.425 57.4085 110.436 65.5042 113.748C73.6 117.06 83.9037 118.937 96.4153 119.378C114.005 91.7055 130.16 71.6133 144.879 59.1017C159.599 46.59 173.583 40.3342 186.83 40.3342C191.246 40.3342 194.742 41.5118 197.318 43.8669C199.894 46.222 201.071 49.6075 200.851 54.0234C200.556 59.6904 198.054 66.0567 193.344 73.122C188.707 80.1874 182.378 87.1056 174.355 93.8766C166.333 100.648 157.097 106.535 146.646 111.54C136.195 116.545 124.971 119.82 112.975 121.365C106.719 131.007 100.353 140.28 93.8762 149.185C87.3996 158.017 80.6286 165.892 73.5632 172.81C66.5714 179.728 59.1012 185.211 51.1526 189.259C43.2777 193.234 34.7771 195.221 25.651 195.221ZM115.072 118.274C125.67 116.508 135.717 113.233 145.211 108.449C154.705 103.592 163.132 97.9613 170.491 91.5583C177.851 85.1553 183.665 78.6051 187.934 71.9077C192.276 65.2103 194.595 59.1017 194.889 53.5818C195.257 49.6075 194.484 46.8476 192.571 45.3021C190.657 43.7565 188.707 43.0205 186.72 43.0941C177.594 43.3885 167.879 48.9084 157.575 59.6536C147.345 70.3989 135.79 85.8913 122.91 106.131C121.586 108.191 120.261 110.215 118.936 112.202C117.611 114.19 116.323 116.214 115.072 118.274Z" fill="#D17E9D"/>
</g>
<g filter="url(#filter1_d_200_1848)">
<path d="M133.537 203.908V151.575H144.978V203.908H133.537ZM133.537 142.513V131.073H144.978V142.513H133.537ZM168.956 203.908V193.713H158.648V161.883H168.956V151.575H199.88V131.073H211.32V193.713H200.899V203.908H168.956ZM170.089 192.581H199.766V162.903H170.089V192.581ZM222.807 203.908V151.575H265.058V161.883H275.48V203.908H263.926V162.903H234.248V203.908H222.807ZM296.058 203.908V193.713H285.75V161.883H296.058V151.575H328.001V161.883H338.422V173.097H326.868V162.903H297.19V171.965H317.806V183.405H297.19V192.581H326.868V182.159H338.422V193.6H328.001V203.908H296.058ZM362.429 224.411V214.216H352.121V202.889H363.562V213.083H393.353V193.713H362.429V183.405H352.121V151.575H363.562V182.273H393.353V151.575H404.794V214.216H394.486V224.411H362.429Z" fill="#C6CC88"/>
</g>
<g filter="url(#filter2_d_200_1848)">
<path d="M178.68 281.984C179.825 281.617 181.245 281.091 182.94 280.404C184.635 279.671 186.238 278.915 187.749 278.136C186.238 275.204 185.482 271.815 185.482 267.967C185.482 265.127 186.009 262.63 187.062 260.477C188.116 258.279 189.582 256.561 191.46 255.324C193.338 254.042 195.468 253.4 197.85 253.4C199.865 253.4 201.652 253.881 203.209 254.843C204.767 255.759 205.981 257.042 206.851 258.691C207.721 260.34 208.156 262.241 208.156 264.394C207.973 269.891 204.08 275.09 196.476 279.991C197.987 281.274 200.094 281.915 202.797 281.915C203.438 281.915 203.942 282.19 204.309 282.74C204.675 283.289 204.858 284.022 204.858 284.939C204.858 285.809 204.652 286.496 204.24 287C203.828 287.504 203.232 287.756 202.454 287.756C200.072 287.756 197.85 287.343 195.789 286.519C193.773 285.649 192.147 284.458 190.91 282.946C189.215 283.816 187.406 284.664 185.482 285.488C183.604 286.267 182.001 286.862 180.672 287.275C179.939 286.633 179.413 285.878 179.092 285.007C178.725 284.137 178.588 283.129 178.68 281.984ZM191.46 267.417C191.46 270.67 191.987 273.372 193.04 275.525C196.201 273.418 198.491 271.54 199.911 269.891C201.331 268.196 202.087 266.364 202.179 264.394C202.179 262.745 201.766 261.462 200.942 260.546C200.163 259.584 199.064 259.103 197.644 259.103C195.857 259.103 194.369 259.905 193.178 261.508C192.032 263.111 191.46 265.081 191.46 267.417ZM202.411 287.756C201.816 287.756 201.335 287.481 200.968 286.931C200.602 286.381 200.418 285.671 200.418 284.801C200.418 283.885 200.648 283.175 201.106 282.671C201.518 282.167 202.09 281.915 202.823 281.915C205.618 281.915 208 281.068 209.969 279.373C211.985 277.678 214.046 274.746 216.153 270.578L220.001 263.088C221.879 259.424 223.666 256.905 225.36 255.53C227.055 254.11 229.025 253.4 231.27 253.4C233.331 253.4 235.072 254.019 236.492 255.255C237.912 256.446 238.896 258.073 239.446 260.134C240.729 257.981 242.378 256.332 244.393 255.187C246.409 253.996 248.653 253.4 251.127 253.4C254.7 253.4 257.448 254.568 259.372 256.905C261.342 259.241 262.327 262.516 262.327 266.73V274.769C262.327 277.289 262.647 279.098 263.289 280.197C263.976 281.297 265.052 281.847 266.518 281.847C267.16 281.847 267.64 282.121 267.961 282.671C268.328 283.221 268.511 283.954 268.511 284.87C268.511 285.603 268.305 286.267 267.892 286.862C267.526 287.458 266.908 287.756 266.037 287.756C259.395 287.756 256.074 283.679 256.074 275.525V266.73C256.074 261.783 254.127 259.309 250.234 259.309C248.218 259.309 246.432 260.111 244.874 261.714C243.363 263.318 242.172 265.539 241.301 268.379C240.477 271.219 240.065 274.517 240.065 278.274V286.794C239.607 286.931 239.103 287.046 238.553 287.137C238.003 287.229 237.476 287.275 236.973 287.275C235.873 287.275 234.843 287.114 233.881 286.794V264.875C233.881 263.089 233.652 261.714 233.193 260.752C232.735 259.79 231.911 259.309 230.72 259.309C229.804 259.309 228.933 259.882 228.109 261.027C227.33 262.127 226.345 263.844 225.154 266.18L220.413 275.319C218.215 279.533 215.649 282.671 212.718 284.732C209.832 286.748 206.396 287.756 202.411 287.756ZM266.528 281.847C268.086 281.847 269.597 281.091 271.063 279.579C272.575 278.022 273.835 275.937 274.842 273.326C274.797 272.685 274.774 272.044 274.774 271.402C274.774 267.921 275.461 264.829 276.835 262.127C278.209 259.424 280.064 257.294 282.401 255.736C284.783 254.179 287.485 253.4 290.508 253.4C292.112 253.4 293.692 253.721 295.249 254.362C296.807 254.958 298.112 255.782 299.166 256.836V254.019C299.578 253.881 300.059 253.767 300.609 253.675C301.159 253.584 301.731 253.538 302.327 253.538C303.426 253.538 304.457 253.698 305.419 254.019V283.015C306.381 282.328 307.365 281.663 308.373 281.022C309.427 280.335 310.32 279.785 311.053 279.373C311.969 279.923 312.679 280.633 313.183 281.503C313.687 282.373 314.008 283.381 314.145 284.526C313.458 284.984 312.565 285.58 311.465 286.313C310.412 287 309.335 287.71 308.236 288.443C307.136 289.176 306.197 289.794 305.419 290.298V306.033C305.419 316.752 301.502 322.111 293.669 322.111C290.05 322.111 287.21 321.035 285.149 318.882C283.133 316.729 282.126 313.774 282.126 310.018C282.126 301.635 287.852 293.779 299.303 286.45V283.564C298.021 284.893 296.532 285.923 294.837 286.656C293.142 287.389 291.287 287.756 289.272 287.756C286.615 287.756 284.256 287.183 282.194 286.038C280.179 284.847 278.53 283.221 277.247 281.159C274.407 285.557 270.674 287.756 266.047 287.756C265.452 287.756 264.971 287.481 264.604 286.931C264.238 286.381 264.055 285.671 264.055 284.801C264.055 282.831 264.879 281.847 266.528 281.847ZM281.164 271.402C281.164 274.655 281.897 277.22 283.363 279.098C284.874 280.93 286.935 281.847 289.546 281.847C292.432 281.847 294.746 280.862 296.486 278.892C298.273 276.922 299.166 274.334 299.166 271.128V263.432C298.25 262.195 297.082 261.21 295.662 260.477C294.242 259.699 292.776 259.309 291.264 259.309C289.295 259.309 287.554 259.836 286.042 260.89C284.531 261.943 283.34 263.386 282.469 265.219C281.599 267.005 281.164 269.066 281.164 271.402ZM288.31 309.881C288.31 311.85 288.768 313.385 289.684 314.484C290.6 315.629 291.86 316.202 293.463 316.202C297.357 316.202 299.303 312.812 299.303 306.033V293.733C291.974 298.91 288.31 304.292 288.31 309.881Z" fill="#F2C1D1"/>
</g>
<g filter="url(#filter3_d_200_1848)">
<path d="M103.532 284.806V224.56H117.014V249.248H159.481V224.56H172.963V284.806H159.481V260.202H117.014V284.806H103.532Z" fill="#ACCCDB"/>
</g>
<defs>
<filter id="filter0_d_200_1848" x="0.259766" y="39.4342" width="202.822" height="156.686" filterUnits="userSpaceOnUse" color-interpolation-filters="sRGB">
<feFlood flood-opacity="0" result="BackgroundImageFix"/>
<feColorMatrix in="SourceAlpha" type="matrix" values="0 0 0 0 0 0 0 0 0 0 0 0 0 0 0 0 0 0 127 0" result="hardAlpha"/>
<feOffset dx="1"/>
<feGaussianBlur stdDeviation="0.45"/>
<feComposite in2="hardAlpha" operator="out"/>
<feColorMatrix type="matrix" values="0 0 0 0 0.598426 0 0 0 0 0.598426 0 0 0 0 0.598426 0 0 0 0.25 0"/>
<feBlend mode="normal" in2="BackgroundImageFix" result="effect1_dropShadow_200_1848"/>
<feBlend mode="normal" in="SourceGraphic" in2="effect1_dropShadow_200_1848" result="shape"/>
</filter>
<filter id="filter1_d_200_1848" x="133.537" y="130.173" width="273.157" height="95.1381" filterUnits="userSpaceOnUse" color-interpolation-filters="sRGB">
<feFlood flood-opacity="0" result="BackgroundImageFix"/>
<feColorMatrix in="SourceAlpha" type="matrix" values="0 0 0 0 0 0 0 0 0 0 0 0 0 0 0 0 0 0 127 0" result="hardAlpha"/>
<feOffset dx="1"/>
<feGaussianBlur stdDeviation="0.45"/>
<feComposite in2="hardAlpha" operator="out"/>
<feColorMatrix type="matrix" values="0 0 0 0 0.598426 0 0 0 0 0.598426 0 0 0 0 0.598426 0 0 0 0.25 0"/>
<feBlend mode="normal" in2="BackgroundImageFix" result="effect1_dropShadow_200_1848"/>
<feBlend mode="normal" in="SourceGraphic" in2="effect1_dropShadow_200_1848" result="shape"/>
</filter>
<filter id="filter2_d_200_1848" x="178.542" y="252.5" width="137.503" height="70.5107" filterUnits="userSpaceOnUse" color-interpolation-filters="sRGB">
<feFlood flood-opacity="0" result="BackgroundImageFix"/>
<feColorMatrix in="SourceAlpha" type="matrix" values="0 0 0 0 0 0 0 0 0 0 0 0 0 0 0 0 0 0 127 0" result="hardAlpha"/>
<feOffset dx="1"/>
<feGaussianBlur stdDeviation="0.45"/>
<feComposite in2="hardAlpha" operator="out"/>
<feColorMatrix type="matrix" values="0 0 0 0 0.598426 0 0 0 0 0.598426 0 0 0 0 0.598426 0 0 0 0.25 0"/>
<feBlend mode="normal" in2="BackgroundImageFix" result="effect1_dropShadow_200_1848"/>
<feBlend mode="normal" in="SourceGraphic" in2="effect1_dropShadow_200_1848" result="shape"/>
</filter>
<filter id="filter3_d_200_1848" x="103.532" y="223.66" width="71.3302" height="62.0461" filterUnits="userSpaceOnUse" color-interpolation-filters="sRGB">
<feFlood flood-opacity="0" result="BackgroundImageFix"/>
<feColorMatrix in="SourceAlpha" type="matrix" values="0 0 0 0 0 0 0 0 0 0 0 0 0 0 0 0 0 0 127 0" result="hardAlpha"/>
<feOffset dx="1"/>
<feGaussianBlur stdDeviation="0.45"/>
<feComposite in2="hardAlpha" operator="out"/>
<feColorMatrix type="matrix" values="0 0 0 0 0.598426 0 0 0 0 0.598426 0 0 0 0 0.598426 0 0 0 0.25 0"/>
<feBlend mode="normal" in2="BackgroundImageFix" result="effect1_dropShadow_200_1848"/>
<feBlend mode="normal" in="SourceGraphic" in2="effect1_dropShadow_200_1848" result="shape"/>
</filter>
</defs>
</svg>
