<svg width="97" height="127" viewBox="0 0 97 127" fill="none" xmlns="http://www.w3.org/2000/svg">
<circle cx="5.82373" cy="48.999" r="4.41177" stroke="#F2C1D1" stroke-width="2.82353"/>
<path d="M58.0248 35.97C56.3275 35.1103 49.513 29.4498 46.1378 23.8107C41.6333 16.2849 43.461 7.67426 44.7335 5.77885C46.048 3.82097 48.9193 3.27873 51.4441 3.17245C55.1653 3.01581 58.2071 8.38798 60.5809 12.8353C64.91 20.9458 62.4263 32.0133 62.136 33.4581C60.6542 40.8314 64.7905 16.0835 71.6545 8.77686C73.0679 7.27231 76.6325 6.07014 79.9433 7.32892C82.0844 8.14295 83.7002 8.93906 84.98 10.5567C86.299 12.224 86.9196 16.1686 87.2725 20.935C87.76 27.5209 80.948 35.102 71.4327 36.9816C68.1549 37.6291 63.9669 38.6444 60.8223 39.0788C58.253 39.4336 72.1531 36.5908 78.319 36.8289C82.007 36.9714 85.0614 40.7408 87.6167 44.3088C89.0364 46.2912 89.4262 48.8302 89.0643 50.7724C88.5971 53.2799 87.9722 54.66 86.6767 55.5486C82.8616 58.1652 79.8953 58.8691 73.5673 57.69C68.645 56.7728 65.7481 51.566 61.7208 45.0261C60.8325 43.5836 60.2993 42.468 59.5316 41.7974C58.7639 41.1269 57.8184 40.911 56.4826 41.7072C53.0449 43.7562 47.5394 52.9684 40.8989 64.078C37.4218 69.8954 36.6815 73.6146 35.5233 81.2317C32.3484 102.111 37.5646 119.575 38.9319 123.131" stroke="#D17E9D" stroke-width="6" stroke-linecap="round"/>
</svg>
