<svg width="151" height="130" viewBox="0 0 151 130" fill="none" xmlns="http://www.w3.org/2000/svg">
<path d="M68.6983 116.272C69.2205 110.33 82.3422 98.3723 79.4653 83.7591C77.9314 75.9675 77.7657 67.1514 77.9655 60.2136C78.477 42.4544 81.2519 38.5526 86.1984 33.7718M85.1984 38.2718C76.6619 24.095 76.2728 22.0606 73.7621 18.4844C68.6984 11.2718 64.7167 8.32275 55.3706 5.86134C52.4405 5.08966 44.5231 4.87933 42.6341 5.33094C38.6983 6.2719 36.6983 11.575 36.6983 14.2721C36.6983 18.8399 35.8128 20.8652 42.9975 29.7643C51.6745 40.5117 62.6192 38.9273 68.6984 39.2718C72.5926 39.4924 83.3611 37.8814 84.5614 37.1328" stroke="#ACCCDB" stroke-width="6" stroke-linecap="round"/>
<path d="M79.9948 38.1078C92.4331 29.3022 97.3598 26.4799 101.555 25.2587C114.861 21.3857 115.768 18.6581 125.199 20.7721C128.156 21.4348 134.065 25.3159 135.245 27.8996C137.699 33.2723 137.016 35.592 136.199 37.7723C134.699 41.7723 134.155 44.8305 123.682 49.4268C111.034 54.9778 100.068 49.7649 94.5647 47.1594C90.5776 45.2717 84.794 38.1078 83.3878 36.8487C82.7594 36.2861 91.0266 43.7941 94.8545 52.7578C97.9643 60.0398 99.9639 70.4995 105.98 80.5044C112.235 90.9069 124.484 102.772 126.19 104.119C127.896 105.467 130.699 106.772 130.699 106.772" stroke="#ACCCDB" stroke-width="6" stroke-linecap="round"/>
<circle cx="8.82373" cy="87.9998" r="7.41177" stroke="#9BA641" stroke-width="2.82353"/>
</svg>
