<svg width="248" height="109" viewBox="0 0 248 109" fill="none" xmlns="http://www.w3.org/2000/svg">
<path d="M244.395 105.658C241.675 104.862 235.703 102.394 227.025 97.9298C218.876 93.7374 210.354 85.9988 202.902 75.5199C195.243 64.7498 189.927 51.422 189.463 44.4617C189.151 39.7867 195.084 32.7466 195.084 32.7466C195.084 32.7466 199.781 28.3889 204.299 28.1248C207.643 27.9293 211.264 28.3258 214.218 29.9049C221.399 33.7437 221.535 42.5657 219.683 50.0263C217.832 57.487 215.722 57.804 212.539 59.8172C206.536 63.6141 195.861 61.0467 189.402 59.1203C185.057 57.824 181.678 55.5918 179.113 53.9767C176.547 52.3621 167.819 43.2198 155.505 29.6534C149.103 21.5029 146.034 15.474 143.762 9.79097C142.843 7.39624 142.4 5.99468 141.823 3.00049" stroke="#F2C1D1" stroke-width="6" stroke-linecap="round"/>
<circle cx="8.82373" cy="30.0005" r="7.41177" stroke="#C6CC88" stroke-width="2.82353"/>
</svg>
