<svg width="58" height="58" viewBox="0 0 58 58" fill="none" xmlns="http://www.w3.org/2000/svg">
<path d="M26.5498 1.78771C27.2218 -0.59587 30.6005 -0.595876 31.2725 1.78771L36.3451 19.7818C36.5767 20.6036 37.2189 21.2458 38.0407 21.4775L56.0348 26.5501C58.4184 27.222 58.4184 30.6008 56.0348 31.2727L38.0407 36.3453C37.2189 36.577 36.5767 37.2192 36.3451 38.041L31.2725 56.035C30.6005 58.4186 27.2218 58.4186 26.5498 56.035L21.4772 38.041C21.2456 37.2192 20.6033 36.577 19.7816 36.3453L1.78747 31.2727C-0.596114 30.6008 -0.59612 27.222 1.78746 26.5501L19.7816 21.4775C20.6033 21.2458 21.2456 20.6036 21.4772 19.7818L26.5498 1.78771Z" fill="#D17E9D"/>
</svg>
