<svg width="248" height="162" viewBox="0 0 248 162" fill="none" xmlns="http://www.w3.org/2000/svg">
<path d="M244.395 158.658C241.675 157.861 235.703 155.394 227.025 150.929C218.876 146.737 210.354 138.998 202.902 128.519C195.243 117.749 189.927 104.422 189.463 97.4612C189.151 92.7862 195.084 85.7461 195.084 85.7461C195.084 85.7461 199.781 81.3884 204.299 81.1243C207.643 80.9288 211.264 81.3253 214.218 82.9044C221.399 86.7432 221.535 95.5652 219.683 103.026C217.832 110.486 215.722 110.804 212.539 112.817C206.536 116.614 195.861 114.046 189.402 112.12C185.057 110.824 181.678 108.591 179.113 106.976C176.547 105.362 167.819 96.2193 155.505 82.6529C149.103 74.5024 146.034 68.4735 143.762 62.7905C142.843 60.3958 142.4 58.9942 141.823 56" stroke="#F2C1D1" stroke-width="6" stroke-linecap="round"/>
<path d="M76.2674 17.457C76.5544 15.0197 80.0921 15.0197 80.3791 17.457L82.8206 38.1889C82.9327 39.1403 83.6829 39.8906 84.6344 40.0026L105.366 42.4442C107.804 42.7312 107.804 46.2688 105.366 46.5559L84.6344 48.9974C83.6829 49.1094 82.9327 49.8597 82.8206 50.8111L80.3791 71.543C80.0921 73.9803 76.5544 73.9803 76.2674 71.543L73.8259 50.8111C73.7138 49.8597 72.9636 49.1094 72.0121 48.9974L51.2802 46.5558C48.8429 46.2688 48.8429 42.7312 51.2802 42.4441L72.0121 40.0026C72.9636 39.8906 73.7138 39.1403 73.8259 38.1889L76.2674 17.457Z" fill="#ACCCDB"/>
<circle cx="8.82373" cy="83" r="7.41177" stroke="#C6CC88" stroke-width="2.82353"/>
</svg>
