<svg width="58" height="58" viewBox="0 0 58 58" fill="none" xmlns="http://www.w3.org/2000/svg">
<path d="M26.8152 1.82805C27.1023 -0.609209 30.6399 -0.609202 30.9269 1.82806L33.3685 22.56C33.4805 23.5114 34.2308 24.2617 35.1822 24.3737L55.9141 26.8152C58.3514 27.1023 58.3514 30.6399 55.9141 30.9269L35.1822 33.3685C34.2308 33.4805 33.4805 34.2308 33.3685 35.1822L30.9269 55.9141C30.6399 58.3514 27.1023 58.3514 26.8152 55.9141L24.3737 35.1822C24.2617 34.2308 23.5114 33.4805 22.56 33.3685L1.82805 30.9269C-0.609209 30.6399 -0.609202 27.1023 1.82806 26.8152L22.56 24.3737C23.5114 24.2617 24.2617 23.5114 24.3737 22.56L26.8152 1.82805Z" fill="#ACCCDB"/>
</svg>
