<svg width="817" height="239" viewBox="0 0 817 239" fill="none" xmlns="http://www.w3.org/2000/svg">
<path d="M483.976 140.278C482.849 140.022 481.798 139.587 480.825 138.972C479.851 138.357 479.031 137.512 478.365 136.435L480.979 132.516C483.438 128.878 485.641 126.418 487.588 125.137C489.587 123.856 491.739 123.216 494.045 123.216C496.248 123.216 498.118 123.856 499.655 125.137C501.244 126.367 502.371 128.083 503.037 130.287C504.216 128.032 505.753 126.29 507.649 125.06C509.596 123.831 511.774 123.216 514.182 123.216C519.203 123.216 522.611 125.803 524.404 130.978C525.634 128.519 527.299 126.623 529.4 125.291C531.501 123.907 533.883 123.216 536.548 123.216C540.186 123.216 542.978 124.369 544.926 126.674C546.873 128.98 547.846 132.234 547.846 136.435V147.119C547.846 149.937 548.205 151.961 548.922 153.191C549.691 154.421 550.895 155.035 552.535 155.035C553.252 155.035 553.79 155.343 554.149 155.958C554.559 156.573 554.764 157.392 554.764 158.417C554.764 159.237 554.533 159.98 554.072 160.646C553.662 161.312 552.97 161.645 551.997 161.645C544.567 161.645 540.852 157.085 540.852 147.964V138.126C540.852 135.462 540.365 133.412 539.392 131.978C538.418 130.543 537.035 129.826 535.241 129.826C532.526 129.826 530.374 131.388 528.785 134.514C527.248 137.588 526.479 141.867 526.479 147.35V160.569C525.967 160.723 525.403 160.851 524.788 160.954C524.174 161.056 523.584 161.107 523.021 161.107C521.791 161.107 520.612 160.928 519.485 160.569V139.202C519.485 136.179 518.947 133.873 517.871 132.285C516.846 130.645 515.309 129.826 513.259 129.826C511.415 129.826 509.775 130.569 508.34 132.054C506.957 133.489 505.855 135.539 505.036 138.203C504.267 140.816 503.883 143.865 503.883 147.35V160.569C503.37 160.723 502.807 160.851 502.192 160.954C501.577 161.056 500.988 161.107 500.424 161.107C499.143 161.107 497.99 160.928 496.965 160.569V136.051C496.965 131.901 495.787 129.826 493.43 129.826C492.661 129.826 491.79 130.184 490.817 130.902C489.894 131.568 488.639 133.131 487.05 135.59L483.976 140.278ZM552.569 155.035C553.645 155.035 554.798 154.702 556.028 154.036C557.257 153.37 558.41 152.345 559.486 150.962C560.972 148.912 561.997 146.504 562.561 143.737C563.175 140.97 563.483 138.28 563.483 135.667V124.292C563.944 124.138 564.482 124.01 565.097 123.907C565.712 123.805 566.352 123.754 567.018 123.754C568.197 123.754 569.35 123.933 570.477 124.292V142.046C570.477 150.552 573.577 154.805 579.777 154.805C583.415 154.805 586.08 153.345 587.77 150.424C589.513 147.452 590.384 143.404 590.384 138.28V124.292C591.46 123.933 592.613 123.754 593.842 123.754C595.123 123.754 596.302 123.933 597.378 124.292V156.342C598.454 155.573 599.556 154.83 600.683 154.113C601.861 153.345 602.861 152.73 603.68 152.269C604.705 152.883 605.499 153.678 606.063 154.651C606.627 155.625 606.985 156.752 607.139 158.033C606.37 158.545 605.371 159.211 604.142 160.031C602.963 160.8 601.759 161.594 600.529 162.414C599.299 163.234 598.249 163.926 597.378 164.489V182.09C597.378 194.08 592.997 200.075 584.235 200.075C580.187 200.075 577.01 198.871 574.704 196.463C572.45 194.054 571.323 190.749 571.323 186.548C571.323 177.171 577.728 168.383 590.537 160.185V156.573C587.617 159.954 583.723 161.645 578.855 161.645C572.347 161.645 567.864 158.904 565.404 153.421C564.585 154.907 563.688 156.137 562.714 157.111C561.331 158.494 559.717 159.596 557.872 160.416C556.079 161.235 554.132 161.645 552.031 161.645C551.313 161.645 550.775 161.287 550.417 160.569C550.007 159.903 549.802 159.16 549.802 158.34C549.802 157.469 550.033 156.701 550.494 156.035C550.904 155.369 551.595 155.035 552.569 155.035ZM578.24 186.394C578.24 188.597 578.752 190.314 579.777 191.544C580.802 192.825 582.211 193.465 584.004 193.465C588.36 193.465 590.537 189.673 590.537 182.09V168.332C582.339 174.122 578.24 180.143 578.24 186.394ZM633.786 161.184C631.583 159.903 630.148 157.956 629.482 155.343C631.121 154.216 632.838 152.807 634.631 151.116C636.425 149.373 637.988 147.657 639.32 145.966C638.602 142.277 638.244 137.281 638.244 130.978V109.612C638.244 105.359 638.372 101.926 638.628 99.3124C638.935 96.6991 639.422 94.5215 640.088 92.7793C641.062 90.2173 642.471 88.2446 644.316 86.8611C646.16 85.4777 648.338 84.7859 650.849 84.7859C654.333 84.7859 657.126 86.5025 659.226 89.9355C661.327 93.3173 662.378 97.8777 662.378 103.616C662.378 108.074 661.942 112.481 661.071 116.836C660.251 121.14 659.124 125.265 657.689 129.211C656.254 133.156 654.615 136.769 652.77 140.048C650.926 143.327 649.004 146.145 647.006 148.502C647.108 148.759 647.236 149.015 647.39 149.271C648.466 151.167 649.721 152.576 651.156 153.498C652.642 154.369 654.461 154.805 656.613 154.805C658.919 154.805 660.943 154.164 662.685 152.883C664.427 151.602 665.785 149.835 666.759 147.58C667.732 145.274 668.219 142.635 668.219 139.664C668.219 138.588 668.142 137.512 667.988 136.435C664.76 134.386 662.634 132.567 661.609 130.978C661.968 129.954 662.531 128.98 663.3 128.058C664.12 127.084 665.016 126.316 665.99 125.752C666.964 125.137 667.886 124.83 668.757 124.83C669.935 124.83 671.011 125.47 671.985 126.751C672.959 127.981 673.727 129.646 674.291 131.747C674.906 133.797 675.213 136.077 675.213 138.588C675.213 143.199 674.445 147.221 672.907 150.654C671.421 154.036 669.269 156.675 666.451 158.571C663.684 160.416 660.405 161.338 656.613 161.338C649.798 161.338 644.905 158.776 641.933 153.652C640.908 154.83 639.73 156.06 638.397 157.341C637.065 158.622 635.528 159.903 633.786 161.184ZM644.7 129.441C644.7 133.797 644.828 137.358 645.084 140.125C647.083 137.102 648.902 133.592 650.541 129.595C652.181 125.547 653.462 121.294 654.384 116.836C655.358 112.327 655.845 107.895 655.845 103.54C655.845 95.2901 654.051 91.1653 650.464 91.1653C648.364 91.1653 646.852 92.5744 645.93 95.3925C645.11 97.9033 644.7 102.336 644.7 108.689V129.441ZM701.39 161.645C698.162 161.645 695.318 160.877 692.858 159.34C690.45 157.802 688.554 155.65 687.171 152.883C685.839 150.116 685.172 146.94 685.172 143.353C685.172 140.227 685.685 137.332 686.71 134.668C681.739 135.846 676.359 136.435 670.569 136.435C669.801 136.435 669.186 136.128 668.724 135.513C668.263 134.847 668.033 134.027 668.033 133.054C668.033 130.953 668.878 129.902 670.569 129.902C679.229 129.902 687.171 128.416 694.396 125.445C696.958 123.959 699.75 123.216 702.773 123.216C704.567 123.216 706.334 123.574 708.077 124.292C709.819 124.958 711.279 125.88 712.457 127.059V123.907C712.919 123.754 713.457 123.626 714.072 123.523C714.686 123.421 715.327 123.369 715.993 123.369C717.223 123.369 718.376 123.549 719.452 123.907V147.119C719.452 149.937 719.81 151.961 720.528 153.191C721.296 154.421 722.5 155.035 724.14 155.035C724.857 155.035 725.395 155.343 725.754 155.958C726.164 156.573 726.369 157.392 726.369 158.417C726.369 159.237 726.138 159.98 725.677 160.646C725.267 161.312 724.576 161.645 723.602 161.645C718.734 161.645 715.455 159.647 713.764 155.65C712.278 157.546 710.485 159.032 708.384 160.108C706.283 161.133 703.952 161.645 701.39 161.645ZM692.32 143.353C692.32 146.991 693.14 149.86 694.78 151.961C696.471 154.011 698.777 155.035 701.697 155.035C704.925 155.035 707.513 153.934 709.46 151.731C711.458 149.527 712.457 146.632 712.457 143.045V134.437C711.433 133.054 710.126 131.952 708.538 131.132C706.949 130.261 705.31 129.826 703.619 129.826C701.415 129.826 699.468 130.415 697.777 131.593C696.086 132.772 694.754 134.386 693.781 136.435C692.807 138.434 692.32 140.74 692.32 143.353ZM724.152 155.035C725.894 155.035 727.585 154.19 729.224 152.499C730.915 150.757 732.324 148.426 733.452 145.505C733.4 144.788 733.375 144.07 733.375 143.353C733.375 139.459 734.143 136 735.68 132.977C737.218 129.954 739.293 127.571 741.906 125.829C744.571 124.087 747.594 123.216 750.975 123.216C752.769 123.216 754.537 123.574 756.279 124.292C758.021 124.958 759.481 125.88 760.66 127.059V123.907C761.121 123.754 761.659 123.626 762.274 123.523C762.889 123.421 763.529 123.369 764.195 123.369C765.425 123.369 766.578 123.549 767.654 123.907V156.342C768.73 155.573 769.832 154.83 770.959 154.113C772.137 153.345 773.137 152.73 773.956 152.269C774.981 152.883 775.775 153.678 776.339 154.651C776.903 155.625 777.261 156.752 777.415 158.033C776.647 158.545 775.647 159.211 774.418 160.031C773.239 160.8 772.035 161.594 770.805 162.414C769.575 163.234 768.525 163.926 767.654 164.489V182.09C767.654 194.08 763.273 200.075 754.511 200.075C750.463 200.075 747.286 198.871 744.98 196.463C742.726 194.054 741.599 190.749 741.599 186.548C741.599 177.171 748.004 168.383 760.813 160.185V156.957C759.379 158.443 757.713 159.596 755.818 160.416C753.922 161.235 751.847 161.645 749.592 161.645C746.62 161.645 743.981 161.005 741.675 159.724C739.421 158.392 737.576 156.573 736.142 154.267C732.965 159.186 728.789 161.645 723.614 161.645C722.947 161.645 722.409 161.338 721.999 160.723C721.59 160.108 721.385 159.314 721.385 158.34C721.385 156.137 722.307 155.035 724.152 155.035ZM740.523 143.353C740.523 146.991 741.342 149.86 742.982 151.961C744.673 154.011 746.979 155.035 749.899 155.035C753.128 155.035 755.715 153.934 757.662 151.731C759.661 149.527 760.66 146.632 760.66 143.045V134.437C759.635 133.054 758.328 131.952 756.74 131.132C755.152 130.261 753.512 129.826 751.821 129.826C749.618 129.826 747.671 130.415 745.98 131.593C744.289 132.772 742.956 134.386 741.983 136.435C741.009 138.434 740.523 140.74 740.523 143.353ZM748.516 186.394C748.516 188.597 749.028 190.314 750.053 191.544C751.078 192.825 752.487 193.465 754.28 193.465C758.636 193.465 760.813 189.673 760.813 182.09V168.332C752.615 174.122 748.516 180.143 748.516 186.394ZM795.735 142.354C794.557 142.354 793.353 142.2 792.123 141.892V138.741C792.123 135.974 792.687 133.822 793.814 132.285C794.992 130.748 796.401 129.493 798.041 128.519L800.193 127.212C801.987 126.085 803.216 124.958 803.882 123.831C804.6 122.652 804.958 121.345 804.958 119.911C804.958 117.554 804.215 115.607 802.729 114.069C801.244 112.532 799.143 111.764 796.427 111.764C794.172 111.764 792.2 112.378 790.509 113.608C788.818 114.787 787.742 116.298 787.281 118.143C785.026 118.092 782.797 117.426 780.594 116.145C780.901 114.454 781.67 112.763 782.9 111.072C784.181 109.33 785.949 107.869 788.203 106.691C790.458 105.512 793.225 104.923 796.504 104.923C800.296 104.923 803.319 105.666 805.573 107.152C807.879 108.638 809.544 110.508 810.569 112.763C811.645 114.966 812.183 117.195 812.183 119.45C812.183 121.858 811.825 123.882 811.107 125.521C810.441 127.11 809.493 128.468 808.263 129.595C807.034 130.671 805.625 131.696 804.036 132.669L802.268 133.822C801.141 134.488 800.372 135.154 799.963 135.821C799.553 136.487 799.348 137.588 799.348 139.126V141.892C798.22 142.2 797.016 142.354 795.735 142.354ZM795.582 161.645C794.147 161.645 792.917 161.133 791.892 160.108C790.868 159.032 790.355 157.777 790.355 156.342C790.355 154.907 790.868 153.678 791.892 152.653C792.917 151.628 794.147 151.116 795.582 151.116C797.016 151.116 798.246 151.628 799.271 152.653C800.347 153.678 800.885 154.907 800.885 156.342C800.885 157.777 800.347 159.032 799.271 160.108C798.246 161.133 797.016 161.645 795.582 161.645Z" fill="#19191D"/>
<path d="M390.83 160.1V120.517H401.974V160.1H390.83ZM390.753 113.984V105.299H402.051V113.984H390.753ZM410.42 160.1V120.517H444.93C449.439 120.517 452.718 121.644 454.768 123.899C456.869 126.102 457.919 129.023 457.919 132.661V160.1H446.774V133.967C446.774 130.893 445.237 129.356 442.163 129.356H421.565V160.1H410.42Z" fill="#19191D"/>
<path d="M157.138 156.492V107.071H164.901V127.977H171.05V120.983H185.807V127.977H192.878V156.492H185.038V128.669H171.819V135.586H164.901V156.492H157.138ZM207.666 156.492V149.574H200.672V127.977H207.666V120.983H229.341V127.977H236.412V148.806H243.406V156.492H235.643V149.574H229.341V156.492H207.666ZM208.435 148.806H228.572V128.669H208.435V148.806ZM258.117 156.492V149.574H251.2V128.669H244.206V120.983H251.2V107.071H258.886V120.983H279.945V128.669H258.886V148.806H279.177V141.811H286.94V149.574H279.945V156.492H258.117ZM299.68 121.751V117.447H303.215V114.834H296.221V107.071H303.984V114.065H307.442V118.216H303.984V121.751H299.68ZM316.712 156.492V148.806H344.612V142.58H323.706V135.586H316.712V127.977H323.706V120.983H352.451V128.669H324.475V134.817H345.38V141.811H352.451V149.574H345.38V156.492H316.712Z" fill="#19191D"/>
<path d="M30.1471 159.79C28.7368 159.79 28.0316 159.35 28.0316 158.468C28.0316 157.998 28.2666 157.616 28.7368 157.322C29.2657 157.028 30.3528 156.676 31.9983 156.264C33.8788 155.971 35.7887 155.236 37.728 154.061C39.6673 152.885 42.0767 150.593 44.9563 147.185C47.8946 143.777 51.7144 138.635 56.4157 131.759C59.5891 127.116 62.6156 122.768 65.4951 118.713C68.3747 114.599 71.4011 110.427 74.5745 106.196C77.8067 101.906 81.4502 97.2336 85.5051 92.1797C91.0291 85.3041 96.847 78.6341 102.959 72.1698C109.129 65.6467 116.299 58.4478 124.467 50.5731C125.995 49.104 127.934 47.1941 130.285 44.8434C132.694 42.4928 135.016 40.2303 137.249 38.0559C139.482 35.8228 141.098 34.2361 142.097 33.2958C143.272 32.1205 144.507 31.1802 145.799 30.475C147.092 29.7698 148.062 29.4172 148.708 29.4172C149.766 29.4172 150.295 29.6817 150.295 30.2106C150.295 30.6219 150.031 30.9745 149.502 31.2684C149.032 31.5034 148.503 31.856 147.915 32.3262C147.327 32.6788 146.505 33.2077 145.447 33.9129C144.448 34.5593 143.184 35.7052 141.656 37.3507C139.893 39.1137 138.16 40.9942 136.456 42.9923C134.751 44.9316 132.665 47.5173 130.197 50.7494C127.729 53.9228 124.467 58.2715 120.412 63.7956C116.416 69.2608 111.245 76.401 104.898 85.2159C97.3759 95.7351 90.2358 104.873 83.4776 112.63C76.7783 120.388 70.167 127.41 63.644 133.698C57.1209 139.986 50.304 146.157 43.1933 152.21C46.6017 150.27 50.0689 148.155 53.5949 145.863C57.1797 143.571 61.2933 140.574 65.9359 136.872C70.5784 133.169 76.1906 128.321 82.7724 122.327C89.3543 116.274 97.4053 108.576 106.925 99.2317C122.44 83.8937 135.28 71.7584 145.447 62.8259C155.613 53.8347 163.517 47.1647 169.159 42.816C174.859 38.4673 178.679 35.5877 180.618 34.1773C183.909 31.8267 186.172 30.2987 187.406 29.5935C188.699 28.8883 189.522 28.5357 189.874 28.5357C190.756 28.5357 191.196 28.9471 191.196 29.7698C191.196 30.1812 190.873 30.5926 190.227 31.0039C189.639 31.4153 188.287 32.1499 186.172 33.2077C183.88 34.3242 181.324 36.2341 178.503 38.9374C175.741 41.5819 173.331 44.4908 171.275 47.6642C167.69 53.3645 163.635 60.1521 159.11 68.0267C154.644 75.8427 149.942 83.8055 145.006 91.9153C140.128 99.9663 135.28 107.253 130.461 113.776C128.816 116.068 126.142 119.565 122.44 124.266C118.796 128.967 114.918 133.963 110.804 139.252C115.858 133.963 120.295 129.349 124.115 125.412C127.934 121.475 131.578 117.743 135.045 114.217C138.571 110.691 142.303 107.018 146.24 103.198C150.236 99.3198 154.849 94.883 160.08 89.8878C165.369 84.8339 171.715 78.8104 179.12 71.8172C192.695 59.0061 204.918 49.1334 215.79 42.1989C226.662 35.2057 236.564 31.7091 245.497 31.7091C251.373 31.7091 256.045 32.7669 259.512 34.8825C262.98 36.9393 264.713 39.9658 264.713 43.9619C264.713 49.0746 262.48 53.2176 258.014 56.391C253.606 59.5644 248.405 61.1511 242.411 61.1511C240.237 61.1511 237.916 60.7691 235.447 60.0051C233.038 59.2412 230.981 58.2715 229.277 57.0962C227.632 55.8621 226.809 54.5986 226.809 53.3058C226.809 51.3665 227.543 50.3968 229.013 50.3968C229.835 50.3968 230.364 50.6025 230.599 51.0139C230.893 51.3665 231.158 52.1598 231.393 53.3939C231.686 54.8043 232.509 55.9503 233.861 56.8318C235.212 57.7132 236.682 58.3597 238.268 58.771C239.914 59.1824 241.236 59.3881 242.235 59.3881C244.644 59.3881 247.201 58.8298 249.904 57.7132C252.666 56.5379 255.017 54.8337 256.956 52.6006C258.954 50.3087 259.953 47.4879 259.953 44.1382C259.953 40.3772 258.337 37.8208 255.105 36.4692C251.931 35.1176 248.376 34.4418 244.439 34.4418C240.795 34.4418 236.799 35.1763 232.45 36.6455C228.102 38.0559 223.107 40.5241 217.465 44.0501C211.823 47.576 205.242 52.4243 197.719 58.5947C190.256 64.7652 181.559 72.6105 171.627 82.1307C167.514 86.068 163.429 90.0054 159.374 93.9427C155.378 97.8213 151.118 101.994 146.593 106.46C142.068 110.867 137.043 115.863 131.519 121.445C125.995 127.028 119.707 133.522 112.655 140.926C106.25 147.626 100.52 152.445 95.466 155.383C90.4121 158.321 87.1505 159.79 85.6814 159.79C84.5648 159.79 84.0065 159.32 84.0065 158.38C84.0065 157.616 84.8586 156.97 86.5629 156.441C88.7372 155.736 90.559 154.942 92.0281 154.061C93.5561 153.179 95.0546 151.857 96.5238 150.094C98.0517 148.272 99.8441 145.657 101.901 142.249C103.958 138.781 106.661 134.08 110.011 128.145C112.479 123.737 115.27 118.977 118.385 113.865C121.558 108.693 124.761 103.639 127.993 98.7028C131.225 93.7664 134.164 89.4765 136.808 85.833C138.042 84.2463 139.893 81.8662 142.362 78.6928C144.888 75.5195 147.709 72.0229 150.824 68.203C153.939 64.3245 157.024 60.534 160.08 56.8318C163.135 53.0707 165.809 49.8092 168.101 47.0471C164.869 49.4566 161.314 52.1598 157.435 55.1569C153.557 58.154 149.766 61.3861 146.064 64.8534C141.656 69.0258 136.602 73.9915 130.902 79.7506C125.261 85.451 118.532 92.121 110.716 99.7606C102.9 107.341 93.5267 116.068 82.5961 125.941C75.2503 132.582 67.9633 138.517 60.735 143.747C53.5655 148.977 47.2775 152.797 41.871 155.207C39.6967 156.147 37.4636 157.146 35.1717 158.204C32.9386 159.262 31.2637 159.79 30.1471 159.79ZM1.23409 78.3402C0.411365 78.3402 0 77.8701 0 76.9298C0 75.6958 0.675813 73.3157 2.02744 69.7897C3.43783 66.205 6.05294 62.3558 9.87275 58.2421C16.2783 51.4252 23.2715 46.5183 30.8523 43.5212C38.492 40.4653 45.6615 38.9374 52.3608 38.9374C56.8271 38.9374 61.4402 39.4663 66.2003 40.5241C70.9604 41.5231 75.5148 42.7866 79.8635 44.3145C85.4463 46.3126 89.8244 47.7523 92.9978 48.6338C96.1712 49.4566 99.6678 49.8679 103.488 49.8679C106.661 49.8679 110.775 48.9864 115.829 47.2234C120.882 45.4605 125.672 42.6984 130.197 38.9374C131.901 37.527 132.841 36.8218 133.018 36.8218C133.605 36.8218 133.899 37.0275 133.899 37.4388C133.899 37.8502 133.429 38.4673 132.489 39.29C125.966 45.2842 119.707 49.3978 113.713 51.6309C107.719 53.8053 101.695 54.8925 95.6423 54.8925C90.8234 54.8925 86.2984 54.4517 82.0672 53.5702C77.8361 52.63 72.8115 51.2196 66.9937 49.339C63.1151 48.0462 59.7948 47.1647 57.0328 46.6946C54.2707 46.1657 51.1267 45.9012 47.6008 45.9012C43.017 45.9012 38.2569 46.6652 33.3205 48.1931C28.4429 49.6623 23.8591 51.7485 19.5692 54.4517C15.2793 57.155 11.6651 60.3283 8.72681 63.9719C7.25765 65.7936 5.9354 67.8211 4.76008 70.0542C3.64351 72.2285 3.08523 74.2266 3.08523 76.0484C3.08523 76.8123 2.85017 77.4 2.38004 77.8113C1.96867 78.1639 1.58669 78.3402 1.23409 78.3402Z" fill="#19191D"/>
</svg>
